<svg width="30" height="25" viewBox="0 0 30 25" className="progress-symbol" xmlns="http://www.w3.org/2000/svg">
<path fill-rule="evenodd" clip-rule="evenodd" d="M4.55496 23.9377V22.3919H25.4405V23.9377C25.4405 24.2766 25.7153 24.5514 26.0542 24.5514H29.3817C29.7206 24.5514 29.9954 24.2766 29.9954 23.9377V15.5049C29.9954 13.5766 29.7252 12.5865 27.0771 9.16815H28.042H28.058C28.3962 9.16052 28.8542 8.91553 28.8542 8.02088C28.8542 7.55217 28.7305 7.27202 28.5496 7.11096C28.3809 6.95981 28.1618 6.91318 27.9488 6.91318H26.126C26.126 6.91318 26.0283 6.65676 25.8344 6.25217C25.6947 5.96133 25.5053 5.59409 25.2656 5.18951C25.2397 5.14447 25.2122 5.09948 25.1847 5.05368L25.1748 5.03766L25.1504 4.99718L25.1435 4.98652C25.1084 4.92926 25.0718 4.87048 25.0344 4.8117C25.0099 4.7743 24.9855 4.73613 24.9603 4.6972C24.903 4.60941 24.8443 4.52083 24.7824 4.43151L24.7695 4.41318L24.7473 4.38038C24.7183 4.33839 24.6886 4.29638 24.6588 4.25439L24.6496 4.24224L24.6191 4.19945L24.5878 4.15673L24.5565 4.1132C24.5458 4.09946 24.5351 4.08499 24.5244 4.07048L24.4924 4.02769C24.4817 4.01319 24.471 3.99948 24.4603 3.98498L24.4275 3.94219L24.4053 3.91319C24.3221 3.80556 24.2366 3.69792 24.1473 3.59182L24.1191 3.55745L24.0916 3.5254C24.0756 3.50555 24.0588 3.48574 24.042 3.46665C23.9771 3.39108 23.9107 3.31698 23.8435 3.24294C23.7817 3.175 23.7183 3.10785 23.6534 3.04144C23.6053 2.99258 23.5565 2.94297 23.5076 2.89488C23.4435 2.83228 23.3786 2.77044 23.3137 2.7109C23.2954 2.6941 23.2779 2.6781 23.2603 2.66207C23.2122 2.61856 23.1641 2.57656 23.116 2.53534C23.0931 2.51549 23.071 2.49642 23.0481 2.47734C22.9649 2.40787 22.8809 2.34065 22.7954 2.27577C22.7229 2.22004 22.6489 2.16585 22.5741 2.11318L22.529 2.08187C22.4107 2.00095 22.2901 1.92309 22.1672 1.8498C22.1397 1.83301 22.1115 1.81701 22.084 1.80098L22.0695 1.79255C22.0534 1.78339 22.0374 1.77428 22.0222 1.76512L21.974 1.73836L21.9534 1.7277C21.9122 1.7048 21.871 1.68265 21.829 1.66128C21.7641 1.62692 21.6985 1.59411 21.6313 1.56205L21.5809 1.53842C21.4641 1.48346 21.345 1.43149 21.2229 1.38187C21.1969 1.37195 21.171 1.36131 21.145 1.35138C20.5672 1.12543 19.9237 0.957472 19.187 0.836861C19.1351 0.828464 19.0832 0.820061 19.0298 0.811664C18.9198 0.79487 18.8076 0.779576 18.6939 0.765072L18.6908 0.764327L18.671 0.762016C18.1488 0.695603 17.5825 0.649086 16.9618 0.620078C16.9336 0.618552 16.9046 0.61704 16.8756 0.616276L16.7893 0.6124C16.7198 0.609346 16.6496 0.607086 16.5786 0.604796C16.5313 0.602506 16.4832 0.600955 16.4351 0.599429L16.345 0.597192C16.1038 0.590322 15.8549 0.585691 15.5985 0.583401C11.487 0.54447 8.53052 0.848305 6.42213 3.02541C4.31373 5.20328 3.94658 6.90558 3.94658 6.90558H1.9939C1.70535 6.90558 1.2046 7.14607 1.2046 8.0079C1.2046 8.8705 1.6374 9.14296 1.98473 9.14296C2.33206 9.14296 3.00688 9.14296 3.00688 9.14296C3.00688 9.14296 2.98855 9.16282 2.95496 9.19946L2.93282 9.22391C2.47022 9.73384 0 12.5804 0 15.2217V23.9377C0 24.2766 0.275595 24.5514 0.614526 24.5514H3.94121C4.28014 24.5514 4.55496 24.2766 4.55496 23.9377ZM26.2198 13.2216C26.1641 13.2232 26.1046 13.23 26.0404 13.2445C25.0183 13.4774 23.3786 14.2552 22.629 14.4438C21.8794 14.6323 22.3534 15.9712 21.3641 16.7537C20.8153 17.188 21.1641 17.3865 21.8931 17.3888H21.9244C22.5076 17.3865 23.3229 17.2621 24.1145 17.0354C25.9252 16.5163 26.9954 15.9842 27.0077 14.6193C27.0077 14.6193 27.0084 14.5919 27.0077 14.5446C27.0054 14.3598 26.9786 13.8728 26.7763 13.5445C26.6763 13.3819 26.5336 13.2583 26.3298 13.2285L26.3198 13.2269C26.3168 13.2269 26.3137 13.2262 26.3107 13.2262L26.3046 13.2254C26.3 13.2247 26.2954 13.2246 26.2908 13.2239C26.2748 13.2224 26.258 13.2216 26.2405 13.2216H26.2305H26.2198ZM3.76946 13.2216C3.82747 13.2216 3.89083 13.2293 3.95877 13.2445C4.98091 13.4774 6.62138 14.2552 7.371 14.4438C8.11985 14.6323 7.64579 15.9712 8.63587 16.7537C9.17709 17.1819 8.84503 17.3812 8.13663 17.3888H8.1061C7.59236 17.3903 6.88933 17.2949 6.1794 17.1148C6.08093 17.0896 5.98319 17.0636 5.88472 17.0354C4.85113 16.7392 4.05879 16.4384 3.56643 15.9804C3.50383 15.9216 3.44503 15.8605 3.39236 15.7964L3.38319 15.7858L3.37406 15.7735C3.3504 15.7445 3.32823 15.7148 3.30686 15.6842L3.30384 15.6797L3.2893 15.6583L3.27786 15.6407C3.26412 15.6201 3.25038 15.5987 3.23816 15.5773L3.23283 15.569L3.22213 15.5499C3.20839 15.5262 3.19542 15.501 3.18244 15.4758C3.16946 15.4491 3.1565 15.4224 3.14505 15.3949L3.13816 15.3796L3.12824 15.3553L3.11833 15.3301C3.11451 15.3209 3.11068 15.3117 3.10763 15.3025L3.09924 15.2789L3.09086 15.2537L3.08322 15.2316C3.06719 15.1804 3.05342 15.1278 3.04121 15.0728L3.03968 15.0667L3.03666 15.0514C3.00842 14.917 2.99391 14.7735 2.99238 14.6193C2.99238 14.6193 2.9435 13.2178 3.76946 13.2216ZM24.5504 8.72311C24.5435 8.65899 24.5008 8.27732 24.355 7.72999C24.0504 6.58877 23.2985 4.7254 21.4954 3.50326C20.0542 2.52692 17.5267 2.22695 15.2168 2.22314L15.1138 2.22239C13.0519 2.22621 11.1809 2.46208 10.4382 2.65521C8.85269 3.06666 6.19924 4.52698 5.48016 8.7331H24.5512L24.5504 8.72311Z" />
</svg>
