<svg width="230" height="665" viewBox="0 0 230 665" fill="none" xmlns="http://www.w3.org/2000/svg">
<path fill-rule="evenodd" clip-rule="evenodd" d="M238.565 617.001C252.351 621.882 259.213 636.053 253.865 648.637C248.518 661.221 232.96 667.484 219.173 662.603C219.173 662.603 -7.49781e-06 586.041 -3.07855e-05 343.096C-5.38731e-05 102.239 216.821 3.30284 216.821 3.30284C230.028 -2.75392 246.167 2.09721 252.802 14.1518C259.47 26.2359 254.123 40.9367 240.916 46.9935C240.626 47.1405 53.6013 133.846 53.6013 343.096C53.6013 550.171 238.049 616.795 238.565 617.001ZM237.888 618.56C237.888 618.56 51.7654 551.7 51.7654 343.096C51.7654 132.581 240.078 45.4939 240.078 45.4939C252.384 39.8489 257.344 26.1477 251.16 14.9163C244.975 3.71427 229.964 -0.813312 217.659 4.83177C217.659 4.83177 1.86851 103.327 1.86854 343.096C1.86856 584.836 219.849 661.015 219.849 661.015C232.67 665.573 247.133 659.751 252.126 648.02C257.119 636.318 250.741 623.117 237.888 618.56ZM311.558 541.968C325.345 546.849 332.206 561.05 326.859 573.634C321.511 586.218 305.953 592.48 292.166 587.57C291.2 587.247 122.343 527.944 122.343 340.509C122.343 154.603 289.814 78.3356 289.814 78.3356C303.021 72.2495 319.16 77.13 325.795 89.1846C332.463 101.239 327.116 115.97 313.909 122.026C313.587 122.173 175.944 186.239 175.944 340.509C175.944 492.603 311.01 541.763 311.558 541.968ZM310.881 543.556C310.881 543.556 174.075 494.132 174.075 340.509C174.075 184.945 313.072 120.527 313.072 120.527C325.377 114.852 330.337 101.18 324.152 89.9491C317.968 78.7177 302.957 74.19 290.652 79.8351C290.652 79.8351 124.179 155.691 124.179 340.509C124.179 527.268 292.842 586.012 292.842 586.012C305.695 590.54 320.158 584.718 325.119 573.017C330.112 561.285 323.734 548.113 310.881 543.556ZM377.883 451.853C391.67 456.733 398.531 470.934 393.184 483.518C387.836 496.102 372.278 502.335 358.491 497.454C357.653 497.16 246.296 458.321 246.296 335.04C246.296 213.788 355.399 163.894 356.139 163.541C369.347 157.485 385.485 162.336 392.121 174.42C398.789 186.474 393.441 201.175 380.234 207.261C379.815 207.438 299.897 245.013 299.897 335.04C299.897 422.745 377.11 451.559 377.883 451.853ZM377.206 453.44C377.206 453.44 298.028 424.421 298.028 335.04C298.028 243.719 379.397 205.732 379.397 205.732C391.702 200.087 396.663 186.386 390.478 175.184C384.293 163.953 369.282 159.425 356.977 165.07C356.977 165.07 248.164 214.465 248.164 335.04C248.164 457.557 359.167 495.896 359.167 495.896C371.988 500.424 386.451 494.603 391.444 482.901C396.405 471.17 390.027 457.968 377.206 453.44Z" fill="#2D69B3"/>
<path fill-rule="evenodd" clip-rule="evenodd" d="M238.565 617.001C252.351 621.882 259.213 636.053 253.865 648.637C248.518 661.221 232.96 667.484 219.173 662.603C219.173 662.603 -7.49781e-06 586.041 -3.07855e-05 343.096C-5.38731e-05 102.239 216.821 3.30284 216.821 3.30284C230.028 -2.75392 246.167 2.09721 252.802 14.1518C259.47 26.2359 254.123 40.9367 240.916 46.9935C240.626 47.1405 53.6013 133.846 53.6013 343.096C53.6013 550.171 238.049 616.795 238.565 617.001ZM237.888 618.56C237.888 618.56 51.7654 551.7 51.7654 343.096C51.7654 132.581 240.078 45.4939 240.078 45.4939C252.384 39.8489 257.344 26.1477 251.16 14.9163C244.975 3.71427 229.964 -0.813312 217.659 4.83177C217.659 4.83177 1.86851 103.327 1.86854 343.096C1.86856 584.836 219.849 661.015 219.849 661.015C232.67 665.573 247.133 659.751 252.126 648.02C257.119 636.318 250.741 623.117 237.888 618.56ZM311.558 541.968C325.345 546.849 332.206 561.05 326.859 573.634C321.511 586.218 305.953 592.48 292.166 587.57C291.2 587.247 122.343 527.944 122.343 340.509C122.343 154.603 289.814 78.3356 289.814 78.3356C303.021 72.2495 319.16 77.13 325.795 89.1846C332.463 101.239 327.116 115.97 313.909 122.026C313.587 122.173 175.944 186.239 175.944 340.509C175.944 492.603 311.01 541.763 311.558 541.968ZM310.881 543.556C310.881 543.556 174.075 494.132 174.075 340.509C174.075 184.945 313.072 120.527 313.072 120.527C325.377 114.852 330.337 101.18 324.152 89.9491C317.968 78.7177 302.957 74.19 290.652 79.8351C290.652 79.8351 124.179 155.691 124.179 340.509C124.179 527.268 292.842 586.012 292.842 586.012C305.695 590.54 320.158 584.718 325.119 573.017C330.112 561.285 323.734 548.113 310.881 543.556ZM377.883 451.853C391.67 456.733 398.531 470.934 393.184 483.518C387.836 496.102 372.278 502.335 358.491 497.454C357.653 497.16 246.296 458.321 246.296 335.04C246.296 213.788 355.399 163.894 356.139 163.541C369.347 157.485 385.485 162.336 392.121 174.42C398.789 186.474 393.441 201.175 380.234 207.261C379.815 207.438 299.897 245.013 299.897 335.04C299.897 422.745 377.11 451.559 377.883 451.853ZM377.206 453.44C377.206 453.44 298.028 424.421 298.028 335.04C298.028 243.719 379.397 205.732 379.397 205.732C391.702 200.087 396.663 186.386 390.478 175.184C384.293 163.953 369.282 159.425 356.977 165.07C356.977 165.07 248.164 214.465 248.164 335.04C248.164 457.557 359.167 495.896 359.167 495.896C371.988 500.424 386.451 494.603 391.444 482.901C396.405 471.17 390.027 457.968 377.206 453.44Z" fill="#2D69B3"/>
<path fill-rule="evenodd" clip-rule="evenodd" d="M238.565 617.001C252.351 621.882 259.213 636.053 253.865 648.637C248.518 661.221 232.96 667.484 219.173 662.603C219.173 662.603 -7.49781e-06 586.041 -3.07855e-05 343.096C-5.38731e-05 102.239 216.821 3.30284 216.821 3.30284C230.028 -2.75392 246.167 2.09721 252.802 14.1518C259.47 26.2359 254.123 40.9367 240.916 46.9935C240.626 47.1405 53.6013 133.846 53.6013 343.096C53.6013 550.171 238.049 616.795 238.565 617.001ZM237.888 618.56C237.888 618.56 51.7654 551.7 51.7654 343.096C51.7654 132.581 240.078 45.4939 240.078 45.4939C252.384 39.8489 257.344 26.1477 251.16 14.9163C244.975 3.71427 229.964 -0.813312 217.659 4.83177C217.659 4.83177 1.86851 103.327 1.86854 343.096C1.86856 584.836 219.849 661.015 219.849 661.015C232.67 665.573 247.133 659.751 252.126 648.02C257.119 636.318 250.741 623.117 237.888 618.56ZM311.558 541.968C325.345 546.849 332.206 561.05 326.859 573.634C321.511 586.218 305.953 592.48 292.166 587.57C291.2 587.247 122.343 527.944 122.343 340.509C122.343 154.603 289.814 78.3356 289.814 78.3356C303.021 72.2495 319.16 77.13 325.795 89.1846C332.463 101.239 327.116 115.97 313.909 122.026C313.587 122.173 175.944 186.239 175.944 340.509C175.944 492.603 311.01 541.763 311.558 541.968ZM310.881 543.556C310.881 543.556 174.075 494.132 174.075 340.509C174.075 184.945 313.072 120.527 313.072 120.527C325.377 114.852 330.337 101.18 324.152 89.9491C317.968 78.7177 302.957 74.19 290.652 79.8351C290.652 79.8351 124.179 155.691 124.179 340.509C124.179 527.268 292.842 586.012 292.842 586.012C305.695 590.54 320.158 584.718 325.119 573.017C330.112 561.285 323.734 548.113 310.881 543.556ZM377.883 451.853C391.67 456.733 398.531 470.934 393.184 483.518C387.836 496.102 372.278 502.335 358.491 497.454C357.653 497.16 246.296 458.321 246.296 335.04C246.296 213.788 355.399 163.894 356.139 163.541C369.347 157.485 385.485 162.336 392.121 174.42C398.789 186.474 393.441 201.175 380.234 207.261C379.815 207.438 299.897 245.013 299.897 335.04C299.897 422.745 377.11 451.559 377.883 451.853ZM377.206 453.44C377.206 453.44 298.028 424.421 298.028 335.04C298.028 243.719 379.397 205.732 379.397 205.732C391.702 200.087 396.663 186.386 390.478 175.184C384.293 163.953 369.282 159.425 356.977 165.07C356.977 165.07 248.164 214.465 248.164 335.04C248.164 457.557 359.167 495.896 359.167 495.896C371.988 500.424 386.451 494.603 391.444 482.901C396.405 471.17 390.027 457.968 377.206 453.44Z" fill="#2D69B3"/>
</svg>
