<svg width="230" height="665" viewBox="0 0 230 665" fill="none" xmlns="http://www.w3.org/2000/svg">
<path fill-rule="evenodd" clip-rule="evenodd" d="M-8.56456 617.001C-22.3514 621.882 -29.2126 636.053 -23.8654 648.637C-18.5182 661.221 -2.95955 667.484 10.8273 662.603C10.8273 662.603 230 586.041 230 343.096C230 102.239 13.1788 3.30284 13.1788 3.30284C-0.0282259 -2.75392 -16.1667 2.09721 -22.8025 14.1518C-29.4704 26.2359 -24.123 40.9367 -10.9159 46.9935C-10.626 47.1405 176.399 133.846 176.399 343.096C176.399 550.171 -8.04916 616.795 -8.56456 617.001ZM-7.88822 618.56C-7.88822 618.56 178.235 551.7 178.235 343.096C178.235 132.581 -10.0784 45.4939 -10.0784 45.4939C-22.3835 39.8489 -27.3444 26.1477 -21.1596 14.9163C-14.9749 3.71427 0.036166 -0.813312 12.3413 4.83177C12.3413 4.83177 228.131 103.327 228.131 343.096C228.131 584.836 10.151 661.015 10.151 661.015C-2.66951 665.573 -17.1329 659.751 -22.1258 648.02C-27.1187 636.318 -20.7409 623.117 -7.88822 618.56ZM-81.5578 541.968C-95.3446 546.849 -102.206 561.05 -96.8586 573.634C-91.5113 586.218 -75.9528 592.48 -62.1659 587.57C-61.1995 587.247 107.657 527.944 107.657 340.509C107.657 154.603 -59.8144 78.3356 -59.8144 78.3356C-73.0214 72.2495 -89.1596 77.13 -95.7953 89.1846C-102.463 101.239 -97.1162 115.97 -83.9092 122.026C-83.587 122.173 54.0564 186.239 54.0564 340.509C54.0564 492.603 -81.0102 541.763 -81.5578 541.968ZM-80.881 543.556C-80.881 543.556 55.9246 494.132 55.9246 340.509C55.9246 184.945 -83.0716 120.527 -83.0716 120.527C-95.3767 114.852 -100.337 101.18 -94.1524 89.9491C-87.9677 78.7177 -72.957 74.19 -60.652 79.8351C-60.652 79.8351 105.821 155.691 105.821 340.509C105.821 527.268 -62.8422 586.012 -62.8422 586.012C-75.6949 590.54 -90.1583 584.718 -95.119 573.017C-100.112 561.285 -93.7337 548.113 -80.881 543.556ZM-147.883 451.853C-161.67 456.733 -168.531 470.934 -163.184 483.518C-157.836 496.102 -142.278 502.335 -128.491 497.454C-127.653 497.16 -16.2956 458.321 -16.2956 335.04C-16.2956 213.788 -125.399 163.894 -126.139 163.541C-139.346 157.485 -155.485 162.336 -162.121 174.42C-168.789 186.474 -163.441 201.175 -150.234 207.261C-149.815 207.438 -69.8969 245.013 -69.8969 335.04C-69.8969 422.745 -147.11 451.559 -147.883 451.853ZM-147.206 453.44C-147.206 453.44 -68.0283 424.421 -68.0283 335.04C-68.0283 243.719 -149.397 205.732 -149.397 205.732C-161.702 200.087 -166.663 186.386 -160.478 175.184C-154.293 163.953 -139.282 159.425 -126.977 165.07C-126.977 165.07 -18.1637 214.465 -18.1637 335.04C-18.1637 457.557 -129.167 495.896 -129.167 495.896C-141.988 500.424 -156.451 494.603 -161.444 482.901C-166.405 471.17 -160.027 457.968 -147.206 453.44Z" fill="#2D69B3"/>
<path fill-rule="evenodd" clip-rule="evenodd" d="M-8.56456 617.001C-22.3514 621.882 -29.2126 636.053 -23.8654 648.637C-18.5182 661.221 -2.95955 667.484 10.8273 662.603C10.8273 662.603 230 586.041 230 343.096C230 102.239 13.1788 3.30284 13.1788 3.30284C-0.0282259 -2.75392 -16.1667 2.09721 -22.8025 14.1518C-29.4704 26.2359 -24.123 40.9367 -10.9159 46.9935C-10.626 47.1405 176.399 133.846 176.399 343.096C176.399 550.171 -8.04916 616.795 -8.56456 617.001ZM-7.88822 618.56C-7.88822 618.56 178.235 551.7 178.235 343.096C178.235 132.581 -10.0784 45.4939 -10.0784 45.4939C-22.3835 39.8489 -27.3444 26.1477 -21.1596 14.9163C-14.9749 3.71427 0.036166 -0.813312 12.3413 4.83177C12.3413 4.83177 228.131 103.327 228.131 343.096C228.131 584.836 10.151 661.015 10.151 661.015C-2.66951 665.573 -17.1329 659.751 -22.1258 648.02C-27.1187 636.318 -20.7409 623.117 -7.88822 618.56ZM-81.5578 541.968C-95.3446 546.849 -102.206 561.05 -96.8586 573.634C-91.5113 586.218 -75.9528 592.48 -62.1659 587.57C-61.1995 587.247 107.657 527.944 107.657 340.509C107.657 154.603 -59.8144 78.3356 -59.8144 78.3356C-73.0214 72.2495 -89.1596 77.13 -95.7953 89.1846C-102.463 101.239 -97.1162 115.97 -83.9092 122.026C-83.587 122.173 54.0564 186.239 54.0564 340.509C54.0564 492.603 -81.0102 541.763 -81.5578 541.968ZM-80.881 543.556C-80.881 543.556 55.9246 494.132 55.9246 340.509C55.9246 184.945 -83.0716 120.527 -83.0716 120.527C-95.3767 114.852 -100.337 101.18 -94.1524 89.9491C-87.9677 78.7177 -72.957 74.19 -60.652 79.8351C-60.652 79.8351 105.821 155.691 105.821 340.509C105.821 527.268 -62.8422 586.012 -62.8422 586.012C-75.6949 590.54 -90.1583 584.718 -95.119 573.017C-100.112 561.285 -93.7337 548.113 -80.881 543.556ZM-147.883 451.853C-161.67 456.733 -168.531 470.934 -163.184 483.518C-157.836 496.102 -142.278 502.335 -128.491 497.454C-127.653 497.16 -16.2956 458.321 -16.2956 335.04C-16.2956 213.788 -125.399 163.894 -126.139 163.541C-139.346 157.485 -155.485 162.336 -162.121 174.42C-168.789 186.474 -163.441 201.175 -150.234 207.261C-149.815 207.438 -69.8969 245.013 -69.8969 335.04C-69.8969 422.745 -147.11 451.559 -147.883 451.853ZM-147.206 453.44C-147.206 453.44 -68.0283 424.421 -68.0283 335.04C-68.0283 243.719 -149.397 205.732 -149.397 205.732C-161.702 200.087 -166.663 186.386 -160.478 175.184C-154.293 163.953 -139.282 159.425 -126.977 165.07C-126.977 165.07 -18.1637 214.465 -18.1637 335.04C-18.1637 457.557 -129.167 495.896 -129.167 495.896C-141.988 500.424 -156.451 494.603 -161.444 482.901C-166.405 471.17 -160.027 457.968 -147.206 453.44Z" fill="#2D69B3"/>
<path fill-rule="evenodd" clip-rule="evenodd" d="M-8.56456 617.001C-22.3514 621.882 -29.2126 636.053 -23.8654 648.637C-18.5182 661.221 -2.95955 667.484 10.8273 662.603C10.8273 662.603 230 586.041 230 343.096C230 102.239 13.1788 3.30284 13.1788 3.30284C-0.0282259 -2.75392 -16.1667 2.09721 -22.8025 14.1518C-29.4704 26.2359 -24.123 40.9367 -10.9159 46.9935C-10.626 47.1405 176.399 133.846 176.399 343.096C176.399 550.171 -8.04916 616.795 -8.56456 617.001ZM-7.88822 618.56C-7.88822 618.56 178.235 551.7 178.235 343.096C178.235 132.581 -10.0784 45.4939 -10.0784 45.4939C-22.3835 39.8489 -27.3444 26.1477 -21.1596 14.9163C-14.9749 3.71427 0.036166 -0.813312 12.3413 4.83177C12.3413 4.83177 228.131 103.327 228.131 343.096C228.131 584.836 10.151 661.015 10.151 661.015C-2.66951 665.573 -17.1329 659.751 -22.1258 648.02C-27.1187 636.318 -20.7409 623.117 -7.88822 618.56ZM-81.5578 541.968C-95.3446 546.849 -102.206 561.05 -96.8586 573.634C-91.5113 586.218 -75.9528 592.48 -62.1659 587.57C-61.1995 587.247 107.657 527.944 107.657 340.509C107.657 154.603 -59.8144 78.3356 -59.8144 78.3356C-73.0214 72.2495 -89.1596 77.13 -95.7953 89.1846C-102.463 101.239 -97.1162 115.97 -83.9092 122.026C-83.587 122.173 54.0564 186.239 54.0564 340.509C54.0564 492.603 -81.0102 541.763 -81.5578 541.968ZM-80.881 543.556C-80.881 543.556 55.9246 494.132 55.9246 340.509C55.9246 184.945 -83.0716 120.527 -83.0716 120.527C-95.3767 114.852 -100.337 101.18 -94.1524 89.9491C-87.9677 78.7177 -72.957 74.19 -60.652 79.8351C-60.652 79.8351 105.821 155.691 105.821 340.509C105.821 527.268 -62.8422 586.012 -62.8422 586.012C-75.6949 590.54 -90.1583 584.718 -95.119 573.017C-100.112 561.285 -93.7337 548.113 -80.881 543.556ZM-147.883 451.853C-161.67 456.733 -168.531 470.934 -163.184 483.518C-157.836 496.102 -142.278 502.335 -128.491 497.454C-127.653 497.16 -16.2956 458.321 -16.2956 335.04C-16.2956 213.788 -125.399 163.894 -126.139 163.541C-139.346 157.485 -155.485 162.336 -162.121 174.42C-168.789 186.474 -163.441 201.175 -150.234 207.261C-149.815 207.438 -69.8969 245.013 -69.8969 335.04C-69.8969 422.745 -147.11 451.559 -147.883 451.853ZM-147.206 453.44C-147.206 453.44 -68.0283 424.421 -68.0283 335.04C-68.0283 243.719 -149.397 205.732 -149.397 205.732C-161.702 200.087 -166.663 186.386 -160.478 175.184C-154.293 163.953 -139.282 159.425 -126.977 165.07C-126.977 165.07 -18.1637 214.465 -18.1637 335.04C-18.1637 457.557 -129.167 495.896 -129.167 495.896C-141.988 500.424 -156.451 494.603 -161.444 482.901C-166.405 471.17 -160.027 457.968 -147.206 453.44Z" fill="#2D69B3"/>
</svg>
