<svg width="160" height="42" viewBox="0 0 160 42" fill="none" xmlns="http://www.w3.org/2000/svg">
<rect x="0.5" y="1.39478" width="159" height="40" rx="4.5" fill="white" stroke="#2D69B3"/>
<path d="M44.7131 21.8038C44.7131 20.915 44.6344 20.0712 44.4994 19.25H31.7869V24.3238H39.0656C38.7394 25.9888 37.7831 27.395 36.3656 28.3512V31.7262H40.7081C43.2506 29.375 44.7131 25.91 44.7131 21.8038Z" fill="#4285F4"/>
<path d="M31.7868 34.9999C35.4318 34.9999 38.4805 33.7849 40.708 31.7262L36.3655 28.3512C35.1505 29.1612 33.6093 29.6562 31.7868 29.6562C28.2655 29.6562 25.2843 27.2824 24.2155 24.0762H19.738V27.5524C21.9543 31.9624 26.5105 34.9999 31.7868 34.9999Z" fill="#34A853"/>
<path d="M24.2156 24.0763C23.9344 23.2663 23.7881 22.4 23.7881 21.5C23.7881 20.6 23.9456 19.7338 24.2156 18.9238V15.4475H19.7381C18.8156 17.27 18.2869 19.3175 18.2869 21.5C18.2869 23.6825 18.8156 25.73 19.7381 27.5525L24.2156 24.0763Z" fill="#FBBC05"/>
<path d="M31.7868 13.3438C33.778 13.3438 35.5555 14.03 36.9618 15.3688L40.8093 11.5213C38.4805 9.33875 35.4318 8 31.7868 8C26.5105 8 21.9543 11.0375 19.738 15.4475L24.2155 18.9238C25.2843 15.7175 28.2655 13.3438 31.7868 13.3438Z" fill="#EA4335"/>
<path d="M66.645 27.935V33H65.755V27.935H66.645ZM66.835 26.345C66.835 26.4317 66.8167 26.5133 66.78 26.59C66.7467 26.6633 66.7 26.73 66.64 26.79C66.5833 26.8467 66.515 26.8917 66.435 26.925C66.3583 26.9583 66.2767 26.975 66.19 26.975C66.1033 26.975 66.0217 26.9583 65.945 26.925C65.8717 26.8917 65.8067 26.8467 65.75 26.79C65.6933 26.73 65.6483 26.6633 65.615 26.59C65.5817 26.5133 65.565 26.4317 65.565 26.345C65.565 26.2583 65.5817 26.1767 65.615 26.1C65.6483 26.02 65.6933 25.9517 65.75 25.895C65.8067 25.835 65.8717 25.7883 65.945 25.755C66.0217 25.7217 66.1033 25.705 66.19 25.705C66.2767 25.705 66.3583 25.7217 66.435 25.755C66.515 25.7883 66.5833 25.835 66.64 25.895C66.7 25.9517 66.7467 26.02 66.78 26.1C66.8167 26.1767 66.835 26.2583 66.835 26.345ZM69.0273 25.635V33H68.1373V25.635H69.0273ZM73.8606 29.915C73.8606 29.7083 73.8306 29.52 73.7706 29.35C73.714 29.1767 73.629 29.0283 73.5156 28.905C73.4056 28.7783 73.2706 28.6817 73.1106 28.615C72.9506 28.545 72.769 28.51 72.5656 28.51C72.139 28.51 71.8006 28.635 71.5506 28.885C71.304 29.1317 71.1506 29.475 71.0906 29.915H73.8606ZM74.5806 32.29C74.4706 32.4233 74.339 32.54 74.1856 32.64C74.0323 32.7367 73.8673 32.8167 73.6906 32.88C73.5173 32.9433 73.3373 32.99 73.1506 33.02C72.964 33.0533 72.779 33.07 72.5956 33.07C72.2456 33.07 71.9223 33.0117 71.6256 32.895C71.3323 32.775 71.0773 32.6017 70.8606 32.375C70.6473 32.145 70.4806 31.8617 70.3606 31.525C70.2406 31.1883 70.1806 30.8017 70.1806 30.365C70.1806 30.0117 70.234 29.6817 70.3406 29.375C70.4506 29.0683 70.6073 28.8033 70.8106 28.58C71.014 28.3533 71.2623 28.1767 71.5556 28.05C71.849 27.92 72.179 27.855 72.5456 27.855C72.849 27.855 73.129 27.9067 73.3856 28.01C73.6456 28.11 73.869 28.2567 74.0556 28.45C74.2456 28.64 74.394 28.8767 74.5006 29.16C74.6073 29.44 74.6606 29.76 74.6606 30.12C74.6606 30.26 74.6456 30.3533 74.6156 30.4C74.5856 30.4467 74.529 30.47 74.4456 30.47H71.0606C71.0706 30.79 71.114 31.0683 71.1906 31.305C71.2706 31.5417 71.3806 31.74 71.5206 31.9C71.6606 32.0567 71.8273 32.175 72.0206 32.255C72.214 32.3317 72.4306 32.37 72.6706 32.37C72.894 32.37 73.0856 32.345 73.2456 32.295C73.409 32.2417 73.549 32.185 73.6656 32.125C73.7823 32.065 73.879 32.01 73.9556 31.96C74.0356 31.9067 74.104 31.88 74.1606 31.88C74.234 31.88 74.2906 31.9083 74.3306 31.965L74.5806 32.29ZM80.0774 30.525C80.2574 30.525 80.4158 30.5 80.5524 30.45C80.6891 30.4 80.8041 30.33 80.8974 30.24C80.9908 30.15 81.0608 30.0433 81.1074 29.92C81.1541 29.7933 81.1774 29.655 81.1774 29.505C81.1774 29.195 81.0824 28.9483 80.8924 28.765C80.7058 28.5817 80.4341 28.49 80.0774 28.49C79.7174 28.49 79.4424 28.5817 79.2524 28.765C79.0658 28.9483 78.9724 29.195 78.9724 29.505C78.9724 29.655 78.9958 29.7933 79.0424 29.92C79.0924 30.0433 79.1641 30.15 79.2574 30.24C79.3508 30.33 79.4658 30.4 79.6024 30.45C79.7391 30.5 79.8974 30.525 80.0774 30.525ZM81.6824 33.275C81.6824 33.1517 81.6474 33.0517 81.5774 32.975C81.5074 32.8983 81.4124 32.8383 81.2924 32.795C81.1758 32.7517 81.0391 32.7217 80.8824 32.705C80.7258 32.685 80.5591 32.67 80.3824 32.66C80.2091 32.65 80.0324 32.64 79.8524 32.63C79.6724 32.62 79.4991 32.6033 79.3324 32.58C79.1458 32.6667 78.9924 32.7767 78.8724 32.91C78.7558 33.04 78.6974 33.1933 78.6974 33.37C78.6974 33.4833 78.7258 33.5883 78.7824 33.685C78.8424 33.785 78.9324 33.87 79.0524 33.94C79.1724 34.0133 79.3224 34.07 79.5024 34.11C79.6858 34.1533 79.9008 34.175 80.1474 34.175C80.3874 34.175 80.6024 34.1533 80.7924 34.11C80.9824 34.0667 81.1424 34.005 81.2724 33.925C81.4058 33.845 81.5074 33.75 81.5774 33.64C81.6474 33.53 81.6824 33.4083 81.6824 33.275ZM82.5874 28.135V28.465C82.5874 28.575 82.5174 28.645 82.3774 28.675L81.8024 28.75C81.9158 28.97 81.9724 29.2133 81.9724 29.48C81.9724 29.7267 81.9241 29.9517 81.8274 30.155C81.7341 30.355 81.6041 30.5267 81.4374 30.67C81.2708 30.8133 81.0708 30.9233 80.8374 31C80.6041 31.0767 80.3508 31.115 80.0774 31.115C79.8408 31.115 79.6174 31.0867 79.4074 31.03C79.3008 31.0967 79.2191 31.1683 79.1624 31.245C79.1058 31.3183 79.0774 31.3933 79.0774 31.47C79.0774 31.59 79.1258 31.6817 79.2224 31.745C79.3224 31.805 79.4524 31.8483 79.6124 31.875C79.7724 31.9017 79.9541 31.9183 80.1574 31.925C80.3641 31.9317 80.5741 31.9433 80.7874 31.96C81.0041 31.9733 81.2141 31.9983 81.4174 32.035C81.6241 32.0717 81.8074 32.1317 81.9674 32.215C82.1274 32.2983 82.2558 32.4133 82.3524 32.56C82.4524 32.7067 82.5024 32.8967 82.5024 33.13C82.5024 33.3467 82.4474 33.5567 82.3374 33.76C82.2308 33.9633 82.0758 34.1433 81.8724 34.3C81.6691 34.46 81.4191 34.5867 81.1224 34.68C80.8291 34.7767 80.4974 34.825 80.1274 34.825C79.7574 34.825 79.4341 34.7883 79.1574 34.715C78.8808 34.6417 78.6508 34.5433 78.4674 34.42C78.2841 34.2967 78.1458 34.1533 78.0524 33.99C77.9624 33.83 77.9174 33.6617 77.9174 33.485C77.9174 33.235 77.9958 33.0233 78.1524 32.85C78.3091 32.6767 78.5241 32.5383 78.7974 32.435C78.6474 32.3683 78.5274 32.28 78.4374 32.17C78.3508 32.0567 78.3074 31.905 78.3074 31.715C78.3074 31.6417 78.3208 31.5667 78.3474 31.49C78.3741 31.41 78.4141 31.3317 78.4674 31.255C78.5241 31.175 78.5924 31.1 78.6724 31.03C78.7524 30.96 78.8458 30.8983 78.9524 30.845C78.7024 30.705 78.5074 30.52 78.3674 30.29C78.2274 30.0567 78.1574 29.7867 78.1574 29.48C78.1574 29.2333 78.2041 29.01 78.2974 28.81C78.3941 28.6067 78.5274 28.435 78.6974 28.295C78.8674 28.1517 79.0691 28.0417 79.3024 27.965C79.5391 27.8883 79.7974 27.85 80.0774 27.85C80.2974 27.85 80.5024 27.875 80.6924 27.925C80.8824 27.9717 81.0558 28.0417 81.2124 28.135H82.5874ZM84.4477 27.935V33H83.5577V27.935H84.4477ZM84.6377 26.345C84.6377 26.4317 84.6194 26.5133 84.5827 26.59C84.5494 26.6633 84.5027 26.73 84.4427 26.79C84.3861 26.8467 84.3177 26.8917 84.2377 26.925C84.1611 26.9583 84.0794 26.975 83.9927 26.975C83.9061 26.975 83.8244 26.9583 83.7477 26.925C83.6744 26.8917 83.6094 26.8467 83.5527 26.79C83.4961 26.73 83.4511 26.6633 83.4177 26.59C83.3844 26.5133 83.3677 26.4317 83.3677 26.345C83.3677 26.2583 83.3844 26.1767 83.4177 26.1C83.4511 26.02 83.4961 25.9517 83.5527 25.895C83.6094 25.835 83.6744 25.7883 83.7477 25.755C83.8244 25.7217 83.9061 25.705 83.9927 25.705C84.0794 25.705 84.1611 25.7217 84.2377 25.755C84.3177 25.7883 84.3861 25.835 84.4427 25.895C84.5027 25.9517 84.5494 26.02 84.5827 26.1C84.6194 26.1767 84.6377 26.2583 84.6377 26.345ZM86.7551 28.95C86.9151 28.6033 87.1117 28.3333 87.3451 28.14C87.5784 27.9433 87.8634 27.845 88.2001 27.845C88.3067 27.845 88.4084 27.8567 88.5051 27.88C88.6051 27.9033 88.6934 27.94 88.7701 27.99L88.7051 28.655C88.6851 28.7383 88.6351 28.78 88.5551 28.78C88.5084 28.78 88.4401 28.77 88.3501 28.75C88.2601 28.73 88.1584 28.72 88.0451 28.72C87.8851 28.72 87.7417 28.7433 87.6151 28.79C87.4917 28.8367 87.3801 28.9067 87.2801 29C87.1834 29.09 87.0951 29.2033 87.0151 29.34C86.9384 29.4733 86.8684 29.6267 86.8051 29.8V33H85.9101V27.935H86.4201C86.5167 27.935 86.5834 27.9533 86.6201 27.99C86.6567 28.0267 86.6817 28.09 86.6951 28.18L86.7551 28.95ZM90.4927 27.935V33H89.6027V27.935H90.4927ZM90.6827 26.345C90.6827 26.4317 90.6643 26.5133 90.6277 26.59C90.5943 26.6633 90.5477 26.73 90.4877 26.79C90.431 26.8467 90.3627 26.8917 90.2827 26.925C90.206 26.9583 90.1243 26.975 90.0377 26.975C89.951 26.975 89.8693 26.9583 89.7927 26.925C89.7193 26.8917 89.6543 26.8467 89.5977 26.79C89.541 26.73 89.496 26.6633 89.4627 26.59C89.4293 26.5133 89.4127 26.4317 89.4127 26.345C89.4127 26.2583 89.4293 26.1767 89.4627 26.1C89.496 26.02 89.541 25.9517 89.5977 25.895C89.6543 25.835 89.7193 25.7883 89.7927 25.755C89.8693 25.7217 89.951 25.705 90.0377 25.705C90.1243 25.705 90.206 25.7217 90.2827 25.755C90.3627 25.7883 90.431 25.835 90.4877 25.895C90.5477 25.9517 90.5943 26.02 90.6277 26.1C90.6643 26.1767 90.6827 26.2583 90.6827 26.345ZM94.905 28.77C94.865 28.8433 94.8033 28.88 94.72 28.88C94.67 28.88 94.6133 28.8617 94.55 28.825C94.4867 28.7883 94.4083 28.7483 94.315 28.705C94.225 28.6583 94.1167 28.6167 93.99 28.58C93.8633 28.54 93.7133 28.52 93.54 28.52C93.39 28.52 93.255 28.54 93.135 28.58C93.015 28.6167 92.9117 28.6683 92.825 28.735C92.7417 28.8017 92.6767 28.88 92.63 28.97C92.5867 29.0567 92.565 29.1517 92.565 29.255C92.565 29.385 92.6017 29.4933 92.675 29.58C92.7517 29.6667 92.8517 29.7417 92.975 29.805C93.0983 29.8683 93.2383 29.925 93.395 29.975C93.5517 30.0217 93.7117 30.0733 93.875 30.13C94.0417 30.1833 94.2033 30.2433 94.36 30.31C94.5167 30.3767 94.6567 30.46 94.78 30.56C94.9033 30.66 95.0017 30.7833 95.075 30.93C95.1517 31.0733 95.19 31.2467 95.19 31.45C95.19 31.6833 95.1483 31.9 95.065 32.1C94.9817 32.2967 94.8583 32.4683 94.695 32.615C94.5317 32.7583 94.3317 32.8717 94.095 32.955C93.8583 33.0383 93.585 33.08 93.275 33.08C92.9217 33.08 92.6017 33.0233 92.315 32.91C92.0283 32.7933 91.785 32.645 91.585 32.465L91.795 32.125C91.8217 32.0817 91.8533 32.0483 91.89 32.025C91.9267 32.0017 91.9733 31.99 92.03 31.99C92.09 31.99 92.1533 32.0133 92.22 32.06C92.2867 32.1067 92.3667 32.1583 92.46 32.215C92.5567 32.2717 92.6733 32.3233 92.81 32.37C92.9467 32.4167 93.1167 32.44 93.32 32.44C93.4933 32.44 93.645 32.4183 93.775 32.375C93.905 32.3283 94.0133 32.2667 94.1 32.19C94.1867 32.1133 94.25 32.025 94.29 31.925C94.3333 31.825 94.355 31.7183 94.355 31.605C94.355 31.465 94.3167 31.35 94.24 31.26C94.1667 31.1667 94.0683 31.0883 93.945 31.025C93.8217 30.9583 93.68 30.9017 93.52 30.855C93.3633 30.805 93.2017 30.7533 93.035 30.7C92.8717 30.6467 92.71 30.5867 92.55 30.52C92.3933 30.45 92.2533 30.3633 92.13 30.26C92.0067 30.1567 91.9067 30.03 91.83 29.88C91.7567 29.7267 91.72 29.5417 91.72 29.325C91.72 29.1317 91.76 28.9467 91.84 28.77C91.92 28.59 92.0367 28.4333 92.19 28.3C92.3433 28.1633 92.5317 28.055 92.755 27.975C92.9783 27.895 93.2333 27.855 93.52 27.855C93.8533 27.855 94.1517 27.9083 94.415 28.015C94.6817 28.1183 94.9117 28.2617 95.105 28.445L94.905 28.77ZM102.956 27.935L100.131 34.495C100.101 34.5617 100.063 34.615 100.016 34.655C99.9725 34.695 99.9042 34.715 99.8109 34.715H99.1509L100.076 32.705L97.9859 27.935H98.7559C98.8325 27.935 98.8925 27.955 98.9359 27.995C98.9825 28.0317 99.0142 28.0733 99.0309 28.12L100.386 31.31C100.439 31.45 100.484 31.5967 100.521 31.75C100.568 31.5933 100.618 31.445 100.671 31.305L101.986 28.12C102.006 28.0667 102.039 28.0233 102.086 27.99C102.136 27.9533 102.191 27.935 102.251 27.935H102.956ZM106.389 30.72C105.979 30.7333 105.629 30.7667 105.339 30.82C105.053 30.87 104.818 30.9367 104.634 31.02C104.454 31.1033 104.323 31.2017 104.239 31.315C104.159 31.4283 104.119 31.555 104.119 31.695C104.119 31.8283 104.141 31.9433 104.184 32.04C104.228 32.1367 104.286 32.2167 104.359 32.28C104.436 32.34 104.524 32.385 104.624 32.415C104.728 32.4417 104.838 32.455 104.954 32.455C105.111 32.455 105.254 32.44 105.384 32.41C105.514 32.3767 105.636 32.33 105.749 32.27C105.866 32.21 105.976 32.1383 106.079 32.055C106.186 31.9717 106.289 31.8767 106.389 31.77V30.72ZM103.514 28.65C103.794 28.38 104.096 28.1783 104.419 28.045C104.743 27.9117 105.101 27.845 105.494 27.845C105.778 27.845 106.029 27.8917 106.249 27.985C106.469 28.0783 106.654 28.2083 106.804 28.375C106.954 28.5417 107.068 28.7433 107.144 28.98C107.221 29.2167 107.259 29.4767 107.259 29.76V33H106.864C106.778 33 106.711 32.9867 106.664 32.96C106.618 32.93 106.581 32.8733 106.554 32.79L106.454 32.31C106.321 32.4333 106.191 32.5433 106.064 32.64C105.938 32.7333 105.804 32.8133 105.664 32.88C105.524 32.9433 105.374 32.9917 105.214 33.025C105.058 33.0617 104.883 33.08 104.689 33.08C104.493 33.08 104.308 33.0533 104.134 33C103.961 32.9433 103.809 32.86 103.679 32.75C103.553 32.64 103.451 32.5017 103.374 32.335C103.301 32.165 103.264 31.965 103.264 31.735C103.264 31.535 103.319 31.3433 103.429 31.16C103.539 30.9733 103.718 30.8083 103.964 30.665C104.211 30.5217 104.533 30.405 104.929 30.315C105.326 30.2217 105.813 30.1683 106.389 30.155V29.76C106.389 29.3667 106.304 29.07 106.134 28.87C105.964 28.6667 105.716 28.565 105.389 28.565C105.169 28.565 104.984 28.5933 104.834 28.65C104.688 28.7033 104.559 28.765 104.449 28.835C104.343 28.9017 104.249 28.9633 104.169 29.02C104.093 29.0733 104.016 29.1 103.939 29.1C103.879 29.1 103.828 29.085 103.784 29.055C103.741 29.0217 103.704 28.9817 103.674 28.935L103.514 28.65ZM109.51 31.78C109.673 32 109.852 32.155 110.045 32.245C110.238 32.335 110.455 32.38 110.695 32.38C111.168 32.38 111.532 32.2117 111.785 31.875C112.038 31.5383 112.165 31.0583 112.165 30.435C112.165 30.105 112.135 29.8217 112.075 29.585C112.018 29.3483 111.935 29.155 111.825 29.005C111.715 28.8517 111.58 28.74 111.42 28.67C111.26 28.6 111.078 28.565 110.875 28.565C110.585 28.565 110.33 28.6317 110.11 28.765C109.893 28.8983 109.693 29.0867 109.51 29.33V31.78ZM109.465 28.72C109.678 28.4567 109.925 28.245 110.205 28.085C110.485 27.925 110.805 27.845 111.165 27.845C111.458 27.845 111.723 27.9017 111.96 28.015C112.197 28.125 112.398 28.29 112.565 28.51C112.732 28.7267 112.86 28.9967 112.95 29.32C113.04 29.6433 113.085 30.015 113.085 30.435C113.085 30.8083 113.035 31.1567 112.935 31.48C112.835 31.8 112.69 32.0783 112.5 32.315C112.313 32.5483 112.083 32.7333 111.81 32.87C111.54 33.0033 111.235 33.07 110.895 33.07C110.585 33.07 110.318 33.0183 110.095 32.915C109.875 32.8083 109.68 32.6617 109.51 32.475V34.715H108.615V27.935H109.15C109.277 27.935 109.355 27.9967 109.385 28.12L109.465 28.72Z" fill="#797979"/>
<path d="M70.448 19.048C70.8213 19.048 71.152 19.016 71.44 18.952C71.728 18.888 72 18.8027 72.256 18.696V16.928H71.104C70.9333 16.928 70.8 16.8827 70.704 16.792C70.608 16.7013 70.56 16.5867 70.56 16.448V14.96H74.704V19.88C74.4053 20.0987 74.0933 20.288 73.768 20.448C73.448 20.6027 73.104 20.7307 72.736 20.832C72.3733 20.9333 71.984 21.008 71.568 21.056C71.1573 21.104 70.7147 21.128 70.24 21.128C69.3867 21.128 68.5973 20.9787 67.872 20.68C67.1467 20.376 66.5173 19.96 65.984 19.432C65.456 18.8987 65.04 18.2693 64.736 17.544C64.4373 16.8133 64.288 16.0213 64.288 15.168C64.288 14.2987 64.432 13.5013 64.72 12.776C65.008 12.0453 65.4187 11.416 65.952 10.888C66.4907 10.36 67.1387 9.94933 67.896 9.656C68.6587 9.36267 69.5093 9.216 70.448 9.216C70.9333 9.216 71.3893 9.256 71.816 9.336C72.2427 9.416 72.6347 9.52533 72.992 9.664C73.3547 9.80267 73.6853 9.968 73.984 10.16C74.2827 10.352 74.5493 10.56 74.784 10.784L74 11.976C73.9253 12.088 73.8347 12.176 73.728 12.24C73.6267 12.304 73.5147 12.336 73.392 12.336C73.232 12.336 73.0667 12.2827 72.896 12.176C72.6827 12.048 72.48 11.9387 72.288 11.848C72.1013 11.752 71.9093 11.6747 71.712 11.616C71.5147 11.5573 71.3067 11.5147 71.088 11.488C70.8693 11.4613 70.624 11.448 70.352 11.448C69.8453 11.448 69.3893 11.5387 68.984 11.72C68.5787 11.896 68.232 12.1467 67.944 12.472C67.6613 12.7973 67.4427 13.1893 67.288 13.648C67.1333 14.1013 67.056 14.608 67.056 15.168C67.056 15.7867 67.1413 16.336 67.312 16.816C67.4827 17.296 67.7173 17.7013 68.016 18.032C68.32 18.3627 68.6773 18.616 69.088 18.792C69.504 18.9627 69.9573 19.048 70.448 19.048ZM80.0466 12.576C80.676 12.576 81.2493 12.6747 81.7666 12.872C82.284 13.0693 82.7266 13.352 83.0946 13.72C83.468 14.088 83.756 14.536 83.9586 15.064C84.1666 15.5867 84.2706 16.176 84.2706 16.832C84.2706 17.4933 84.1666 18.0907 83.9586 18.624C83.756 19.152 83.468 19.6027 83.0946 19.976C82.7266 20.344 82.284 20.6293 81.7666 20.832C81.2493 21.0293 80.676 21.128 80.0466 21.128C79.412 21.128 78.8333 21.0293 78.3106 20.832C77.7933 20.6293 77.3453 20.344 76.9666 19.976C76.5933 19.6027 76.3026 19.152 76.0946 18.624C75.892 18.0907 75.7906 17.4933 75.7906 16.832C75.7906 16.176 75.892 15.5867 76.0946 15.064C76.3026 14.536 76.5933 14.088 76.9666 13.72C77.3453 13.352 77.7933 13.0693 78.3106 12.872C78.8333 12.6747 79.412 12.576 80.0466 12.576ZM80.0466 19.288C80.6173 19.288 81.036 19.088 81.3026 18.688C81.5746 18.2827 81.7106 17.6693 81.7106 16.848C81.7106 16.0267 81.5746 15.416 81.3026 15.016C81.036 14.616 80.6173 14.416 80.0466 14.416C79.46 14.416 79.0306 14.616 78.7586 15.016C78.4866 15.416 78.3506 16.0267 78.3506 16.848C78.3506 17.6693 78.4866 18.2827 78.7586 18.688C79.0306 19.088 79.46 19.288 80.0466 19.288ZM89.3279 12.576C89.9572 12.576 90.5305 12.6747 91.0479 12.872C91.5652 13.0693 92.0079 13.352 92.3759 13.72C92.7492 14.088 93.0372 14.536 93.2399 15.064C93.4479 15.5867 93.5519 16.176 93.5519 16.832C93.5519 17.4933 93.4479 18.0907 93.2399 18.624C93.0372 19.152 92.7492 19.6027 92.3759 19.976C92.0079 20.344 91.5652 20.6293 91.0479 20.832C90.5305 21.0293 89.9572 21.128 89.3279 21.128C88.6932 21.128 88.1145 21.0293 87.5919 20.832C87.0745 20.6293 86.6265 20.344 86.2479 19.976C85.8745 19.6027 85.5839 19.152 85.3759 18.624C85.1732 18.0907 85.0719 17.4933 85.0719 16.832C85.0719 16.176 85.1732 15.5867 85.3759 15.064C85.5839 14.536 85.8745 14.088 86.2479 13.72C86.6265 13.352 87.0745 13.0693 87.5919 12.872C88.1145 12.6747 88.6932 12.576 89.3279 12.576ZM89.3279 19.288C89.8985 19.288 90.3172 19.088 90.5839 18.688C90.8559 18.2827 90.9919 17.6693 90.9919 16.848C90.9919 16.0267 90.8559 15.416 90.5839 15.016C90.3172 14.616 89.8985 14.416 89.3279 14.416C88.7412 14.416 88.3119 14.616 88.0399 15.016C87.7679 15.416 87.6319 16.0267 87.6319 16.848C87.6319 17.6693 87.7679 18.2827 88.0399 18.688C88.3119 19.088 88.7412 19.288 89.3279 19.288ZM97.8411 12.56C98.1931 12.56 98.5238 12.5947 98.8331 12.664C99.1478 12.7333 99.4385 12.832 99.7051 12.96H102.209V13.864C102.209 14.0027 102.169 14.112 102.089 14.192C102.014 14.272 101.884 14.3333 101.697 14.376L101.089 14.512C101.164 14.752 101.201 15 101.201 15.256C101.201 15.672 101.113 16.0453 100.937 16.376C100.766 16.7067 100.529 16.9893 100.225 17.224C99.9265 17.4533 99.5718 17.632 99.1611 17.76C98.7505 17.8827 98.3105 17.944 97.8411 17.944C97.5798 17.944 97.3345 17.928 97.1051 17.896C96.9238 18.0027 96.8331 18.1253 96.8331 18.264C96.8331 18.4027 96.9051 18.504 97.0491 18.568C97.1985 18.6267 97.3931 18.6693 97.6331 18.696C97.8731 18.7173 98.1478 18.7333 98.4571 18.744C98.7665 18.7493 99.0811 18.768 99.4011 18.8C99.7211 18.8267 100.036 18.8747 100.345 18.944C100.654 19.0133 100.929 19.1253 101.169 19.28C101.409 19.4347 101.601 19.6427 101.745 19.904C101.894 20.16 101.969 20.488 101.969 20.888C101.969 21.2613 101.878 21.6267 101.697 21.984C101.516 22.3413 101.249 22.6587 100.897 22.936C100.545 23.2133 100.113 23.4347 99.6011 23.6C99.0891 23.7707 98.5025 23.856 97.8411 23.856C97.1905 23.856 96.6278 23.7947 96.1531 23.672C95.6838 23.5493 95.2918 23.3867 94.9771 23.184C94.6678 22.9867 94.4385 22.7573 94.2891 22.496C94.1398 22.2347 94.0651 21.9627 94.0651 21.68C94.0651 21.312 94.1771 21.0027 94.4011 20.752C94.6251 20.496 94.9318 20.296 95.3211 20.152C95.1345 20.0293 94.9851 19.872 94.8731 19.68C94.7611 19.488 94.7051 19.2453 94.7051 18.952C94.7051 18.8293 94.7265 18.7013 94.7691 18.568C94.8118 18.4293 94.8785 18.296 94.9691 18.168C95.0598 18.04 95.1745 17.9173 95.3131 17.8C95.4518 17.6827 95.6171 17.5787 95.8091 17.488C95.3771 17.2587 95.0358 16.9547 94.7851 16.576C94.5398 16.1973 94.4171 15.7573 94.4171 15.256C94.4171 14.84 94.5051 14.4667 94.6811 14.136C94.8571 13.8 95.0971 13.5173 95.4011 13.288C95.7105 13.0533 96.0731 12.8747 96.4891 12.752C96.9051 12.624 97.3558 12.56 97.8411 12.56ZM99.6811 21.304C99.6811 21.1707 99.6385 21.064 99.5531 20.984C99.4731 20.904 99.3611 20.84 99.2171 20.792C99.0785 20.744 98.9131 20.7093 98.7211 20.688C98.5345 20.6667 98.3318 20.6507 98.1131 20.64C97.8945 20.6293 97.6678 20.6213 97.4331 20.616C97.1985 20.6053 96.9665 20.5867 96.7371 20.56C96.5825 20.6667 96.4545 20.7867 96.3531 20.92C96.2571 21.048 96.2091 21.1947 96.2091 21.36C96.2091 21.4773 96.2331 21.584 96.2811 21.68C96.3345 21.776 96.4251 21.8587 96.5531 21.928C96.6811 21.9973 96.8518 22.0507 97.0651 22.088C97.2838 22.1307 97.5585 22.152 97.8891 22.152C98.2465 22.152 98.5398 22.1307 98.7691 22.088C98.9985 22.0453 99.1798 21.9867 99.3131 21.912C99.4518 21.8373 99.5478 21.7467 99.6011 21.64C99.6545 21.5387 99.6811 21.4267 99.6811 21.304ZM97.8411 16.416C98.2518 16.416 98.5478 16.3147 98.7291 16.112C98.9158 15.904 99.0091 15.6373 99.0091 15.312C99.0091 14.976 98.9158 14.712 98.7291 14.52C98.5478 14.328 98.2518 14.232 97.8411 14.232C97.4305 14.232 97.1318 14.328 96.9451 14.52C96.7638 14.712 96.6731 14.976 96.6731 15.312C96.6731 15.472 96.6945 15.6187 96.7371 15.752C96.7851 15.8853 96.8571 16.0027 96.9531 16.104C97.0491 16.2 97.1691 16.2773 97.3131 16.336C97.4625 16.3893 97.6385 16.416 97.8411 16.416ZM105.848 9.024V21H103.368V9.024H105.848ZM111.403 12.576C111.952 12.576 112.453 12.6613 112.907 12.832C113.365 13.0027 113.757 13.2507 114.083 13.576C114.413 13.9013 114.669 14.3013 114.851 14.776C115.037 15.2453 115.131 15.7787 115.131 16.376C115.131 16.5627 115.123 16.7147 115.107 16.832C115.091 16.9493 115.061 17.0427 115.019 17.112C114.976 17.1813 114.917 17.2293 114.843 17.256C114.773 17.2827 114.683 17.296 114.571 17.296H109.787C109.867 17.9893 110.077 18.4933 110.419 18.808C110.76 19.1173 111.2 19.272 111.739 19.272C112.027 19.272 112.275 19.2373 112.483 19.168C112.691 19.0987 112.875 19.0213 113.035 18.936C113.2 18.8507 113.349 18.7733 113.483 18.704C113.621 18.6347 113.765 18.6 113.915 18.6C114.112 18.6 114.261 18.672 114.363 18.816L115.083 19.704C114.827 19.9973 114.549 20.2373 114.251 20.424C113.957 20.6053 113.653 20.7493 113.339 20.856C113.029 20.9573 112.717 21.0267 112.403 21.064C112.093 21.1067 111.797 21.128 111.515 21.128C110.933 21.128 110.387 21.0347 109.875 20.848C109.368 20.656 108.923 20.3733 108.539 20C108.16 19.6267 107.859 19.1627 107.635 18.608C107.416 18.0533 107.307 17.408 107.307 16.672C107.307 16.1173 107.4 15.592 107.587 15.096C107.779 14.6 108.051 14.1653 108.403 13.792C108.76 13.4187 109.189 13.1227 109.691 12.904C110.197 12.6853 110.768 12.576 111.403 12.576ZM111.451 14.288C110.976 14.288 110.605 14.424 110.339 14.696C110.072 14.9627 109.896 15.3493 109.811 15.856H112.907C112.907 15.6587 112.88 15.4667 112.827 15.28C112.779 15.0933 112.696 14.928 112.579 14.784C112.467 14.6347 112.317 14.5147 112.131 14.424C111.944 14.3333 111.717 14.288 111.451 14.288Z" fill="#2D69B3"/>
<rect x="0.5" y="1.5" width="159" height="39.6604" rx="5.5" stroke="#2D69B3"/>
</svg>
