<svg width="63" height="63" viewBox="0 0 63 63" fill="none" xmlns="http://www.w3.org/2000/svg">
<path d="M39.375 28.875V13.125L31.5 5.25L23.625 13.125V18.375H7.875V55.125H55.125V28.875H39.375ZM18.375 49.875H13.125V44.625H18.375V49.875ZM18.375 39.375H13.125V34.125H18.375V39.375ZM18.375 28.875H13.125V23.625H18.375V28.875ZM34.125 49.875H28.875V44.625H34.125V49.875ZM34.125 39.375H28.875V34.125H34.125V39.375ZM34.125 28.875H28.875V23.625H34.125V28.875ZM34.125 18.375H28.875V13.125H34.125V18.375ZM49.875 49.875H44.625V44.625H49.875V49.875ZM49.875 39.375H44.625V34.125H49.875V39.375Z" fill="white"/>
</svg>
