<svg width="112" height="35" viewBox="0 0 112 35" fill="none" xmlns="http://www.w3.org/2000/svg">
<path d="M97.5815 20.849C98.9786 20.849 100.09 21.1526 100.916 21.7611C101.742 22.3696 102.155 23.3272 102.155 24.6339V29.8827C102.155 30.2281 102.076 30.4949 101.918 30.6823C101.76 30.8704 101.546 31.0468 101.276 31.2122C100.886 31.4371 100.382 31.6326 99.7664 31.7979C99.1513 31.9633 98.4377 32.0456 97.6263 32.0456C96.1697 32.0456 95.032 31.7604 94.2133 31.1894C93.3946 30.6191 92.9853 29.7776 92.9853 28.6664C92.9853 27.675 93.305 26.9166 93.9429 26.3911C94.5815 25.8649 95.5009 25.5422 96.7025 25.4217L99.8348 25.1064V24.6111C99.8348 23.9504 99.6202 23.4698 99.1925 23.1692C98.764 22.8686 98.1672 22.7187 97.4014 22.7187C96.8003 22.7187 96.2219 22.801 95.6663 22.9663C95.1107 23.1317 94.6153 23.3191 94.1795 23.5293C94.0296 23.4095 93.9017 23.2633 93.7966 23.0905C93.6915 22.9178 93.6386 22.726 93.6386 22.5158C93.6386 22.2608 93.7026 22.0499 93.8304 21.8853C93.9583 21.7199 94.1575 21.5773 94.4272 21.4568C94.8483 21.2466 95.3289 21.093 95.8691 20.9953C96.41 20.8975 96.9811 20.849 97.5815 20.849ZM64.8245 20.849C66.2216 20.849 67.3328 21.1526 68.1588 21.7611C68.9849 22.3696 69.3979 23.3272 69.3979 24.6339V29.8827C69.3979 30.2281 69.3193 30.4949 69.1613 30.6823C69.0033 30.8704 68.7894 31.0468 68.519 31.2122C68.1287 31.4371 67.6253 31.6326 67.0102 31.7979C66.3943 31.9633 65.6807 32.0456 64.8693 32.0456C63.4127 32.0456 62.275 31.7604 61.4563 31.1894C60.6376 30.6191 60.2283 29.7776 60.2283 28.6664C60.2283 27.675 60.548 26.9166 61.1859 26.3911C61.8245 25.8649 62.7447 25.5422 63.9463 25.4217L67.0778 25.1064V24.6111C67.0778 23.9504 66.8632 23.4698 66.4354 23.1692C66.007 22.8686 65.4102 22.7187 64.6444 22.7187C64.0433 22.7187 63.4656 22.801 62.9093 22.9663C62.3537 23.1317 61.8583 23.3191 61.4225 23.5293C61.2726 23.4095 61.1447 23.2633 61.0396 23.0905C60.9345 22.9178 60.8816 22.726 60.8816 22.5158C60.8816 22.2608 60.9456 22.0499 61.0734 21.8853C61.2013 21.7199 61.4005 21.5773 61.6702 21.4568C62.0913 21.2466 62.5712 21.093 63.1121 20.9953C63.653 20.8975 64.2233 20.849 64.8245 20.849ZM87.3984 28.6208C87.3984 29.1617 87.5564 29.5446 87.8717 29.7703C88.187 29.9951 88.6301 30.1083 89.2004 30.1083C89.4562 30.1083 89.7266 30.0708 90.0118 29.9951C90.2969 29.9202 90.5446 29.8305 90.7555 29.7247C90.8606 29.8452 90.9539 29.9804 91.037 30.1304C91.1193 30.281 91.1605 30.4611 91.1605 30.6713C91.1605 31.0615 90.962 31.3849 90.5637 31.6399C90.1661 31.8957 89.5613 32.0228 88.7499 32.0228C87.624 32.0228 86.7259 31.7715 86.0579 31.268C85.3898 30.7653 85.0555 29.9356 85.0555 28.7788V18.2577C85.1606 18.2276 85.3105 18.1901 85.506 18.1452C85.7014 18.1004 85.9116 18.0776 86.1365 18.0776C86.5723 18.0776 86.8913 18.1599 87.0941 18.3253C87.297 18.4907 87.3984 18.7685 87.3984 19.1587V21.3892H90.8907C90.9503 21.4796 91.0069 21.6075 91.059 21.7721C91.112 21.9375 91.1384 22.1102 91.1384 22.2902C91.1384 22.9362 90.8606 23.2596 90.3043 23.2596H87.3984V28.6208ZM42.6783 28.2835H37.1818L36.078 31.7303C35.9427 31.7906 35.8002 31.8354 35.6495 31.8655C35.4996 31.8957 35.3195 31.9104 35.1086 31.9104C34.7338 31.9104 34.4259 31.828 34.1855 31.6627C33.9452 31.4973 33.8247 31.2497 33.8247 30.9189C33.8247 30.7536 33.8475 30.5926 33.8923 30.4346C33.9371 30.2766 33.9974 30.1002 34.0724 29.9055C34.2679 29.2742 34.542 28.4599 34.8948 27.4611C35.2475 26.4624 35.6231 25.407 36.0214 24.2958C36.4197 23.1839 36.821 22.0918 37.2267 21.0173C37.6323 19.9436 37.9851 19.0242 38.2857 18.2577C38.4356 18.168 38.6686 18.0813 38.9839 17.999C39.2991 17.9159 39.6225 17.8748 39.9525 17.8748C40.3883 17.8748 40.7785 17.9351 41.124 18.0548C41.4694 18.1754 41.7023 18.3856 41.8229 18.6862C42.1529 19.5423 42.5137 20.5146 42.9039 21.6031C43.2942 22.6922 43.6852 23.8152 44.0754 24.9712C44.4657 26.128 44.8412 27.262 45.202 28.3732C45.5622 29.4851 45.8855 30.4912 46.1707 31.3922C46.0355 31.5422 45.8591 31.6664 45.6408 31.7641C45.4233 31.8619 45.1646 31.9104 44.864 31.9104C44.4583 31.9104 44.1658 31.8317 43.985 31.6737C43.805 31.5164 43.655 31.2497 43.5345 30.8741L42.6783 28.2835ZM107.517 31.6627C107.412 31.7075 107.265 31.7487 107.077 31.7862C106.89 31.8236 106.684 31.8427 106.458 31.8427C106.022 31.8427 105.699 31.7604 105.489 31.5951C105.279 31.4297 105.174 31.1519 105.174 30.7617V23.372C105.174 22.9965 105.249 22.6922 105.399 22.4592C105.55 22.227 105.79 22.0051 106.12 21.7949C106.556 21.5244 107.111 21.2995 107.787 21.1187C108.463 20.9387 109.206 20.849 110.017 20.849C111.339 20.849 112 21.2238 112 21.9749C112 22.155 111.97 22.324 111.91 22.482C111.85 22.64 111.782 22.7789 111.707 22.8987C111.557 22.8686 111.369 22.8385 111.144 22.8091C110.919 22.7789 110.679 22.7635 110.423 22.7635C109.822 22.7635 109.274 22.8274 108.778 22.9553C108.283 23.0825 107.862 23.2441 107.517 23.4396V31.6627ZM55.43 24.8815C55.43 24.1452 55.2235 23.605 54.8104 23.2596C54.3974 22.9134 53.8381 22.7415 53.1319 22.7415C52.6064 22.7415 52.1368 22.8091 51.7238 22.9436C51.3107 23.0788 50.9543 23.2294 50.6537 23.3948V31.6627C50.5486 31.7075 50.4024 31.7487 50.2142 31.7862C50.0268 31.8236 49.8203 31.8427 49.5947 31.8427C49.1596 31.8427 48.8362 31.7604 48.6261 31.5951C48.4159 31.4297 48.3108 31.1519 48.3108 30.7617V23.3272C48.3108 22.981 48.3784 22.7032 48.5136 22.493C48.6488 22.2829 48.8737 22.0727 49.1897 21.8625C49.6101 21.6075 50.1584 21.3745 50.8338 21.1643C51.5099 20.9541 52.2757 20.849 53.1319 20.849C54.5892 20.849 55.7306 21.1753 56.5566 21.8287C57.3827 22.482 57.7957 23.4698 57.7957 24.7912V31.6627C57.6906 31.7075 57.5399 31.7487 57.3452 31.7862C57.1497 31.8236 56.9395 31.8427 56.7139 31.8427C56.2788 31.8427 55.9554 31.7604 55.7453 31.5951C55.5351 31.4297 55.43 31.1519 55.43 30.7617V24.8815ZM79.581 25.1292C79.581 24.3032 79.3591 23.6983 78.9159 23.3154C78.4735 22.9325 77.8914 22.7415 77.1705 22.7415C76.6898 22.7415 76.2503 22.8201 75.852 22.9774C75.4544 23.1354 75.1053 23.3272 74.8048 23.5521V31.6627C74.6997 31.7075 74.5534 31.7487 74.3653 31.7862C74.1779 31.8236 73.9714 31.8427 73.7457 31.8427C73.3107 31.8427 72.9873 31.7604 72.7771 31.5951C72.5669 31.4297 72.4618 31.1519 72.4618 30.7617V17.0862C72.5669 17.0561 72.7168 17.0186 72.9123 16.9738C73.1078 16.9289 73.318 16.9062 73.5429 16.9062C73.9787 16.9062 74.2976 16.9885 74.5005 17.1538C74.7033 17.3192 74.8048 17.597 74.8048 17.9872V21.5472C75.1502 21.3671 75.5522 21.2055 76.01 21.0629C76.4679 20.9203 76.9823 20.849 77.5534 20.849C78.8601 20.849 79.9154 21.1944 80.7187 21.8853C81.5219 22.5761 81.9239 23.627 81.9239 25.0388V31.6627C81.8189 31.7075 81.6689 31.7487 81.4734 31.7862C81.278 31.8236 81.0751 31.8427 80.8649 31.8427C80.4144 31.8427 80.0881 31.7604 79.8853 31.5951C79.6824 31.4297 79.581 31.1519 79.581 30.7617V25.1292ZM97.6263 30.198C98.1525 30.198 98.6104 30.1458 99.0006 30.0407C99.3916 29.9356 99.6694 29.8224 99.8348 29.7026V26.8416L97.3786 27.0893C96.6878 27.1642 96.1697 27.3178 95.8243 27.5508C95.4789 27.7838 95.3062 28.1402 95.3062 28.6208C95.3062 29.1169 95.4936 29.5035 95.8691 29.7813C96.2447 30.0591 96.8304 30.198 97.6263 30.198ZM64.8693 30.198C65.3955 30.198 65.8534 30.1458 66.2436 30.0407C66.6346 29.9356 66.9124 29.8224 67.0778 29.7026V26.8416L64.6217 27.0893C63.9308 27.1642 63.4127 27.3178 63.0673 27.5508C62.7219 27.7838 62.5492 28.1402 62.5492 28.6208C62.5492 29.1169 62.7366 29.5035 63.1121 29.7813C63.4877 30.0591 64.0734 30.198 64.8693 30.198ZM39.9304 19.9701C39.7798 20.3757 39.6144 20.8336 39.4344 21.3444C39.2543 21.8551 39.0662 22.3916 38.8714 22.9553C38.6759 23.5183 38.4804 24.0893 38.2857 24.6677C38.0902 25.2453 37.9028 25.8054 37.722 26.3455H42.1602C41.9654 25.7451 41.7663 25.1402 41.5634 24.5325C41.3606 23.9239 41.1651 23.3419 40.9777 22.7863C40.7896 22.2307 40.6132 21.7089 40.4486 21.2202C40.2832 20.7322 40.148 20.3155 40.0429 19.9701H39.9304ZM47.6802 8.31345C47.6802 9.48492 47.5112 10.5175 47.1731 11.4104C46.8351 12.3048 46.3662 13.0515 45.765 13.6527C45.1646 14.2531 44.4583 14.7073 43.6477 15.0152C42.8363 15.3231 41.95 15.4775 40.9887 15.4775C40.0275 15.4775 39.1382 15.3231 38.3195 15.0152C37.5008 14.7073 36.7945 14.2531 36.2014 13.6527C35.6084 13.0515 35.1424 12.3048 34.8051 11.4104C34.467 10.5175 34.298 9.48492 34.298 8.31345C34.298 7.14125 34.4707 6.11309 34.8161 5.22677C35.1615 4.34046 35.6348 3.59304 36.2352 2.98526C36.8364 2.37674 37.5456 1.91888 38.3643 1.61095C39.183 1.30301 40.0576 1.14869 40.9887 1.14869C41.9353 1.14869 42.8135 1.30301 43.6249 1.61095C44.4363 1.91888 45.1418 2.37674 45.7422 2.98526C46.3434 3.59304 46.8167 4.34046 47.1621 5.22677C47.5075 6.11309 47.6802 7.14125 47.6802 8.31345ZM88.8403 11.0841C89.0505 11.9403 89.4599 12.5745 90.0684 12.9876C90.6761 13.4006 91.4537 13.6071 92.3995 13.6071C93.0308 13.6071 93.6085 13.5101 94.1347 13.3146C94.6602 13.1191 95.0805 12.9089 95.3966 12.684C95.8169 12.9244 96.0271 13.2617 96.0271 13.6975C96.0271 13.9525 95.9294 14.1892 95.7339 14.4074C95.5391 14.625 95.2724 14.8124 94.9343 14.9704C94.5962 15.1284 94.1986 15.2519 93.74 15.3423C93.2822 15.4319 92.7905 15.4775 92.2651 15.4775C91.3934 15.4775 90.6012 15.3569 89.8876 15.1166C89.1747 14.8763 88.5625 14.5162 88.0517 14.0356C87.541 13.5549 87.147 12.9618 86.8692 12.2556C86.5914 11.5501 86.4518 10.7313 86.4518 9.8002C86.4518 8.89918 86.5878 8.10694 86.8575 7.42346C87.1279 6.73998 87.4961 6.16894 87.9613 5.71108C88.4273 5.25249 88.9755 4.9034 89.6061 4.66308C90.2367 4.42276 90.9128 4.30297 91.6338 4.30297C92.3547 4.30297 93.0117 4.41909 93.6048 4.65206C94.1986 4.88503 94.7094 5.20766 95.1371 5.62069C95.5649 6.03372 95.8956 6.52611 96.1285 7.09641C96.3615 7.66745 96.4776 8.29067 96.4776 8.96606C96.4776 9.34161 96.3872 9.61573 96.2072 9.78844C96.0271 9.96114 95.764 10.078 95.4186 10.1383L88.8403 11.0841ZM64.3968 15.2967C63.961 15.2967 63.6383 15.2144 63.4274 15.049C63.2172 14.8837 63.1121 14.6059 63.1121 14.2156V0.540902C63.2172 0.51077 63.3679 0.473286 63.5626 0.427721C63.7581 0.382891 63.9683 0.360105 64.1939 0.360105C64.629 0.360105 64.9524 0.443151 65.1626 0.607774C65.3728 0.773131 65.4778 1.05094 65.4778 1.44192V15.1166C65.3581 15.1622 65.2037 15.2034 65.0163 15.2408C64.8282 15.2783 64.6217 15.2967 64.3968 15.2967ZM71.2 15.1166C71.0949 15.1622 70.9486 15.2034 70.7612 15.2408C70.5731 15.2783 70.3592 15.2967 70.1189 15.2967C69.6831 15.2967 69.3604 15.2144 69.1503 15.049C68.9401 14.8837 68.835 14.6059 68.835 14.2156V4.68587C68.9548 4.65574 69.1091 4.61826 69.2965 4.57342C69.4839 4.52859 69.6985 4.50581 69.9388 4.50581C70.3739 4.50581 70.6936 4.58812 70.8957 4.75348C71.0985 4.91883 71.2 5.20399 71.2 5.60966V15.1166ZM81.5411 8.33549C81.5411 7.59983 81.3345 7.05893 80.9215 6.71352C80.5085 6.36811 79.9492 6.1954 79.2429 6.1954C78.7175 6.1954 78.2479 6.26301 77.8348 6.39824C77.4218 6.53346 77.0654 6.68339 76.7648 6.84874V15.1166C76.6597 15.1622 76.5134 15.2034 76.3253 15.2408C76.1379 15.2783 75.9314 15.2967 75.7058 15.2967C75.2707 15.2967 74.9473 15.2144 74.7371 15.049C74.527 14.8837 74.4219 14.6059 74.4219 14.2156V6.78113C74.4219 6.43571 74.4895 6.15792 74.6247 5.94773C74.7599 5.73754 74.9848 5.52662 75.3001 5.31643C75.7212 5.06141 76.2694 4.82844 76.9448 4.61825C77.621 4.40807 78.3868 4.30297 79.2429 4.30297C80.6996 4.30297 81.8416 4.62928 82.667 5.28263C83.4937 5.93597 83.9068 6.92371 83.9068 8.24583V15.1166C83.8017 15.1622 83.651 15.2034 83.4555 15.2408C83.2608 15.2783 83.0506 15.2967 82.825 15.2967C82.3899 15.2967 82.0665 15.2144 81.8563 15.049C81.6461 14.8837 81.5411 14.6059 81.5411 14.2156V8.33549ZM57.4804 8.33549C57.4804 7.59983 57.2739 7.05893 56.8609 6.71352C56.4471 6.36811 55.8878 6.1954 55.1823 6.1954C54.6568 6.1954 54.1872 6.26301 53.7742 6.39824C53.3612 6.53346 53.004 6.68339 52.7041 6.84874V15.1166C52.5991 15.1622 52.4521 15.2034 52.2647 15.2408C52.0773 15.2783 51.8707 15.2967 51.6451 15.2967C51.2093 15.2967 50.8867 15.2144 50.6765 15.049C50.4663 14.8837 50.3612 14.6059 50.3612 14.2156V6.78113C50.3612 6.43571 50.4288 6.15792 50.5633 5.94773C50.6993 5.73754 50.9242 5.52662 51.2394 5.31643C51.6598 5.06141 52.2081 4.82844 52.8842 4.61825C53.5603 4.40807 54.3261 4.30297 55.1823 4.30297C56.6389 4.30297 57.7803 4.62928 58.6063 5.28263C59.4324 5.93597 59.8454 6.92371 59.8454 8.24583V15.1166C59.7403 15.1622 59.5904 15.2034 59.3949 15.2408C59.2001 15.2783 58.9892 15.2967 58.7643 15.2967C58.3285 15.2967 58.0059 15.2144 57.7957 15.049C57.5855 14.8837 57.4804 14.6059 57.4804 14.2156V8.33549ZM45.2241 8.31345C45.2241 6.63121 44.8412 5.35024 44.0754 4.472C43.3096 3.59304 42.2807 3.15428 40.9887 3.15428C39.7276 3.15428 38.7097 3.59671 37.9366 4.48303C37.1627 5.36935 36.7762 6.64591 36.7762 8.31345C36.7762 9.99495 37.159 11.2796 37.9248 12.1652C38.6906 13.0515 39.7122 13.4947 40.9887 13.4947C42.2807 13.4947 43.3096 13.0515 44.0754 12.1652C44.8412 11.2796 45.2241 9.99495 45.2241 8.31345ZM91.6338 6.12779C90.8077 6.12779 90.1205 6.40559 89.5723 6.96119C89.024 7.51679 88.7352 8.31345 88.7051 9.34969L94.2471 8.56112C94.1869 7.88499 93.9392 7.31027 93.5041 6.83772C93.0683 6.36443 92.4451 6.12779 91.6338 6.12779ZM68.5866 1.3743C68.5866 0.984058 68.7218 0.65702 68.9922 0.393918C69.2627 0.13155 69.6081 0 70.0285 0C70.4489 0 70.7869 0.13155 71.0427 0.393918C71.2977 0.65702 71.4256 0.984058 71.4256 1.3743C71.4256 1.76455 71.2977 2.09158 71.0427 2.35395C70.7869 2.61705 70.4489 2.74861 70.0285 2.74861C69.6081 2.74861 69.2627 2.61705 68.9922 2.35395C68.7218 2.09158 68.5866 1.76455 68.5866 1.3743Z" fill="#2D69B3"/>
<path fill-rule="evenodd" clip-rule="evenodd" d="M14.1805 21.1801V34.3667L14.1006 34.3898L13.9642 34.4157L13.8612 34.426C13.8277 34.4286 13.7969 34.4286 13.766 34.4286C12.8237 34.4363 12.0539 33.5685 12.0462 32.4924L12.041 31.5606C12.0822 31.4422 12.1337 31.3083 12.1955 31.1667C12.2135 31.1255 12.2315 31.0842 12.2521 31.043C12.2933 30.958 12.3371 30.8705 12.3835 30.7855L12.471 30.613L12.5405 30.4534L12.592 30.3118L12.6306 30.1703L12.6564 30.0262C12.7079 29.6504 12.6281 29.246 12.3603 28.7465C12.1853 28.4196 12.0797 28.1287 12.0179 27.8661L12.0024 25.6262C12.0797 25.4048 12.1955 25.1241 12.35 24.8435C12.6924 24.2231 12.7799 23.6515 12.3268 22.8045C12.1491 22.475 12.0437 22.1789 11.9793 21.9137L11.9767 21.1801H14.1805ZM15.5785 21.1801L15.6505 32.4642C15.6531 32.7552 15.5991 33.0306 15.4986 33.2803L15.4368 33.4194C15.4265 33.4425 15.4162 33.4631 15.4059 33.4837L15.3029 33.6562L15.1975 33.8003L15.1562 33.8518C15.1356 33.875 15.115 33.8956 15.0944 33.9162C15.0712 33.9419 15.048 33.9652 15.0249 33.9858C15.0017 34.009 14.9785 34.0296 14.9553 34.0502L14.9064 34.0886L14.7803 34.1789L14.6877 34.233V21.1801H15.5785ZM20.2873 10.7018C20.8794 11.003 21.3968 11.3866 21.8886 11.8706C23.5079 13.4591 24.3292 15.6115 24.3292 15.6115H26.0258C26.4351 15.6115 26.8676 15.7968 26.8676 16.6438C26.8676 17.4908 26.43 17.7123 26.1134 17.7123H25.2148C27.6786 20.8944 27.931 21.8161 27.931 23.6131V31.4654C27.931 31.782 27.6761 32.0368 27.3594 32.0368H24.2623C23.9457 32.0368 23.6882 31.782 23.6882 31.4654V30.0262H16.8348L16.7781 21.1801H16.8682C18.9459 21.1801 20.6347 19.4913 20.6347 17.4136V17.3055H22.8618C22.8618 17.3055 22.6274 14.6949 20.6347 12.9185V12.2799C20.6347 11.7161 20.5113 11.1806 20.2873 10.7018ZM7.61029 10.7714C7.40948 11.2348 7.29614 11.7444 7.29614 12.2799V12.9726C6.33327 13.8479 5.46051 15.2099 5.10265 17.3055H7.29614V17.4136C7.29614 19.396 8.83056 21.0231 10.7769 21.1698L10.7821 21.919C10.7821 22.0091 10.7924 22.0992 10.813 22.1868C10.8954 22.5421 11.0344 22.9333 11.2687 23.371C11.4669 23.7417 11.4489 23.9914 11.2996 24.2617C11.1065 24.6093 10.9675 24.957 10.8697 25.2325C10.8259 25.3612 10.8027 25.4975 10.8053 25.634L10.8181 27.8738C10.8181 27.9665 10.831 28.0565 10.8516 28.1466C10.934 28.4942 11.0704 28.8804 11.3021 29.313C11.4566 29.6013 11.4798 29.8177 11.4129 30.0262H4.24029V31.4654C4.24029 31.782 3.98535 32.0368 3.66869 32.0368H0.571598C0.254933 32.0368 0 31.782 0 31.4654V23.3478C0 20.6343 2.79853 17.6889 2.79853 17.6889H1.84591C1.52409 17.6889 1.11994 17.4342 1.11994 16.631C1.11994 15.8277 1.58589 15.6062 1.85622 15.6062H3.67384C3.67384 15.6062 4.0163 14.0203 5.97809 11.9915C6.47239 11.4818 7.013 11.0829 7.61029 10.7714ZM7.08256 22.7067C7.08256 22.2021 6.67578 21.7953 6.17118 21.7953H4.35091C3.84888 21.7953 3.43952 22.2021 3.43952 22.7067V25.1475C3.43952 25.6495 3.84888 26.0589 4.35091 26.0589H6.17118C6.67578 26.0589 7.08256 25.6495 7.08256 25.1475V22.7067ZM24.5068 22.7092C24.5068 22.2046 24.0975 21.7953 23.5929 21.7953H21.7625C21.2579 21.7953 20.8484 22.2046 20.8484 22.7092V25.1422C20.8484 25.6494 21.2579 26.0589 21.7625 26.0589H23.5929C24.0975 26.0589 24.5068 25.6494 24.5068 25.1422V22.7092ZM11.7964 9.71571C11.7964 8.58035 12.7156 7.66138 13.8483 7.66138C14.9811 7.66138 15.9003 8.58035 15.9003 9.71571H16.8682L17.0613 9.72099L17.2493 9.74161L17.3858 9.76725L17.5659 9.811L17.7384 9.86505L17.8337 9.90377L17.9651 9.96034L17.9959 9.97568C18.7991 10.3696 19.3656 11.1678 19.4299 12.1049L19.4325 12.1899L19.4351 12.2799V17.4136C19.4351 18.8296 18.2842 19.9803 16.8682 19.9803H11.0601L10.8722 19.9725L10.7692 19.9622C9.49227 19.8181 8.49591 18.7318 8.49591 17.4136V12.2799L8.49855 12.1255C8.55519 11.2116 9.08805 10.4263 9.85269 10.0169L9.99172 9.94752L10.1359 9.88818L10.2826 9.83413L10.4346 9.7929L10.589 9.75694L10.7461 9.73381L10.9056 9.71823L11.024 9.71571H11.0601H11.7964ZM14.5538 8.97956C14.559 8.98471 14.564 8.98723 14.5692 8.99238C14.5743 8.99753 14.5769 9.00263 14.5795 9.0052C14.5846 9.00778 14.5873 9.01294 14.5924 9.01551L14.5949 9.02054L14.5976 9.02331C14.6001 9.02846 14.6027 9.03104 14.6052 9.03361C14.6258 9.05421 14.6438 9.07481 14.6593 9.09798L14.6644 9.10552C14.667 9.10552 14.667 9.10823 14.6696 9.1108C14.7546 9.22665 14.8163 9.36305 14.8472 9.5098C14.8498 9.52267 14.8524 9.53288 14.855 9.54575V9.55355C14.855 9.55612 14.8575 9.55877 14.8575 9.56134C14.8601 9.58966 14.8653 9.61794 14.8653 9.64883V9.65663L14.8678 9.66166C14.8678 9.67968 14.8678 9.69769 14.8678 9.71571C14.8678 10.277 14.4122 10.7352 13.8483 10.7352C13.2871 10.7352 12.8288 10.277 12.8288 9.71571C12.8288 9.69769 12.8288 9.67968 12.8314 9.66166C12.8571 9.12358 13.3025 8.6937 13.8483 8.6937C14.1212 8.6937 14.371 8.80449 14.5538 8.97956Z" fill="black"/>
<path fill-rule="evenodd" clip-rule="evenodd" d="M11.0384 7.90023C11.0384 7.90023 11.7013 6.25207 13.7414 6.25207C15.8281 6.25207 16.6958 7.9482 16.6958 7.9482C16.8303 8.2158 17.1567 8.32393 17.4243 8.18878C17.6919 8.0543 17.8 7.72791 17.6655 7.46031C17.6655 7.46031 16.5255 5.1668 13.7414 5.1668C10.9114 5.1668 10.0261 7.50829 10.0261 7.50829C9.918 7.78737 10.0572 8.1016 10.3363 8.2104C10.6154 8.31852 10.9303 8.17999 11.0384 7.90023ZM8.96721 6.50952C8.96721 6.50952 10.0991 3.65177 13.6157 3.65177C17.1783 3.65177 18.6548 6.55683 18.6548 6.55683C18.7893 6.82443 19.1157 6.93255 19.3833 6.79807C19.6509 6.66292 19.759 6.33654 19.6245 6.06894C19.6245 6.06894 17.8757 2.56583 13.6157 2.56583C9.30914 2.56583 7.95493 6.11692 7.95493 6.11692C7.84681 6.396 7.98534 6.7109 8.2651 6.81902C8.54419 6.92714 8.85909 6.78861 8.96721 6.50952ZM7.24336 4.9776C7.24336 4.9776 8.77597 1.08526 13.5562 1.08526C18.3818 1.08526 20.3786 5.02557 20.3786 5.02557C20.5131 5.29317 20.8402 5.4013 21.1078 5.26614C21.3754 5.13167 21.4828 4.80528 21.3483 4.53768C21.3483 4.53768 19.0792 0 13.5562 0C7.98669 0 6.23109 4.58566 6.23109 4.58566C6.12297 4.86474 6.26149 5.17965 6.54058 5.28777C6.81966 5.39589 7.13457 5.25736 7.24336 4.9776Z" fill="#2D69B3"/>
</svg>
