<svg width="220" height="68" viewBox="0 0 220 68" fill="none" xmlns="http://www.w3.org/2000/svg">
<path d="M190.811 40.7681C193.543 40.7681 195.716 41.3616 197.331 42.5515C198.946 43.7414 199.754 45.6139 199.754 48.169L199.754 58.4325C199.754 59.1079 199.6 59.6296 199.291 59.996C198.982 60.3639 198.564 60.7088 198.035 61.0322C197.272 61.4719 196.288 61.8542 195.083 62.1775C193.881 62.5008 192.485 62.6618 190.899 62.6618C188.05 62.6618 185.826 62.1042 184.225 60.9876C182.624 59.8725 181.824 58.227 181.824 56.0542C181.824 54.1156 182.449 52.6325 183.696 51.605C184.945 50.5761 186.743 49.9452 189.092 49.7095L195.217 49.093V48.1244C195.217 46.8325 194.797 45.8927 193.961 45.3049C193.123 44.7172 191.956 44.424 190.459 44.424C189.283 44.424 188.152 44.585 187.066 44.9083C185.98 45.2316 185.011 45.5981 184.159 46.0091C183.866 45.7748 183.616 45.4889 183.41 45.1511C183.205 44.8134 183.101 44.4384 183.101 44.0274C183.101 43.5287 183.226 43.1163 183.476 42.7944C183.726 42.471 184.116 42.1922 184.643 41.9566C185.467 41.5456 186.406 41.2452 187.463 41.0541C188.52 40.8629 189.637 40.7681 190.811 40.7681ZM126.758 40.7681C129.49 40.7681 131.663 41.3616 133.278 42.5515C134.893 43.7414 135.701 45.6139 135.701 48.169V58.4325C135.701 59.1079 135.547 59.6296 135.238 59.996C134.929 60.3639 134.511 60.7088 133.982 61.0322C133.219 61.4719 132.235 61.8542 131.032 62.1775C129.828 62.5008 128.432 62.6618 126.846 62.6618C123.997 62.6618 121.773 62.1042 120.172 60.9876C118.571 59.8725 117.771 58.227 117.771 56.0542C117.771 54.1156 118.396 52.6325 119.643 51.605C120.892 50.5761 122.691 49.9452 125.041 49.7095L131.164 49.093V48.1244C131.164 46.8325 130.744 45.8927 129.908 45.3049C129.07 44.7172 127.903 44.424 126.406 44.424C125.23 44.424 124.101 44.585 123.013 44.9083C121.927 45.2316 120.958 45.5981 120.106 46.0091C119.813 45.7748 119.563 45.4889 119.357 45.1511C119.152 44.8134 119.048 44.4384 119.048 44.0274C119.048 43.5287 119.173 43.1163 119.423 42.7944C119.673 42.471 120.063 42.1922 120.59 41.9566C121.414 41.5456 122.352 41.2452 123.41 41.0541C124.467 40.8629 125.583 40.7681 126.758 40.7681ZM170.899 55.9651C170.899 57.0227 171.208 57.7715 171.824 58.2126C172.441 58.6524 173.307 58.8737 174.423 58.8737C174.923 58.8737 175.452 58.8004 176.009 58.6524C176.567 58.5058 177.051 58.3305 177.464 58.1235C177.669 58.3592 177.852 58.6236 178.014 58.9168C178.175 59.2114 178.255 59.5635 178.255 59.9745C178.255 60.7376 177.867 61.3699 177.088 61.8685C176.311 62.3686 175.128 62.6172 173.542 62.6172C171.34 62.6172 169.584 62.1258 168.278 61.1414C166.971 60.1584 166.318 58.536 166.318 56.274V35.701C166.523 35.6421 166.816 35.5688 167.199 35.4811C167.581 35.3935 167.992 35.3489 168.432 35.3489C169.284 35.3489 169.907 35.5099 170.304 35.8332C170.701 36.1566 170.899 36.6998 170.899 37.4629V41.8243H177.728C177.844 42.0011 177.955 42.2512 178.057 42.5731C178.16 42.8964 178.212 43.2341 178.212 43.5862C178.212 44.8494 177.669 45.4817 176.581 45.4817H170.899V55.9651ZM83.4535 55.3055H72.7056L70.5471 62.0453C70.2827 62.1631 70.0039 62.2508 69.7093 62.3097C69.4162 62.3686 69.0641 62.3974 68.6517 62.3974C67.9188 62.3974 67.3166 62.2364 66.8467 61.9131C66.3768 61.5897 66.1411 61.1055 66.1411 60.4588C66.1411 60.1354 66.1857 59.8207 66.2733 59.5118C66.361 59.2028 66.4788 58.8579 66.6254 58.4771C67.0077 57.2426 67.5437 55.6503 68.2335 53.6974C68.9233 51.7444 69.6576 49.6808 70.4365 47.5079C71.2154 45.3337 72 43.1982 72.7933 41.0972C73.5865 38.9976 74.2763 37.1999 74.8641 35.701C75.1573 35.5257 75.6128 35.3561 76.2293 35.1952C76.8458 35.0328 77.4781 34.9523 78.1234 34.9523C78.9756 34.9523 79.7386 35.0701 80.4141 35.3044C81.0895 35.5401 81.545 35.9511 81.7807 36.5388C82.426 38.213 83.1315 40.1142 83.8946 42.2425C84.6577 44.3723 85.4222 46.5681 86.1853 48.8286C86.9484 51.0905 87.6827 53.3079 88.3883 55.4808C89.0925 57.6551 89.7248 59.6224 90.2824 61.3842C90.018 61.6774 89.6731 61.9203 89.2463 62.1114C88.8209 62.3025 88.3151 62.3974 87.7273 62.3974C86.934 62.3974 86.3621 62.2436 86.0086 61.9346C85.6565 61.6271 85.3633 61.1055 85.1276 60.3711L83.4535 55.3055ZM210.239 61.9131C210.033 62.0007 209.746 62.0812 209.379 62.1545C209.013 62.2278 208.609 62.2652 208.168 62.2652C207.316 62.2652 206.685 62.1042 206.274 61.7809C205.863 61.4575 205.657 60.9143 205.657 60.1512L205.657 45.7015C205.657 44.9672 205.804 44.3723 206.097 43.9167C206.392 43.4626 206.862 43.0286 207.507 42.6176C208.359 42.0888 209.445 41.649 210.768 41.2955C212.088 40.9434 213.542 40.7681 215.128 40.7681C217.713 40.7681 219.005 41.501 219.005 42.9697C219.005 43.3218 218.946 43.6523 218.828 43.9613C218.712 44.2702 218.579 44.5418 218.433 44.7761C218.138 44.7172 217.772 44.6582 217.331 44.6008C216.891 44.5418 216.421 44.5117 215.921 44.5117C214.747 44.5117 213.675 44.6367 212.705 44.8867C211.736 45.1353 210.914 45.4515 210.239 45.8338L210.239 61.9131ZM108.388 48.6533C108.388 47.2133 107.984 46.1571 107.177 45.4817C106.369 44.8048 105.275 44.4685 103.894 44.4685C102.867 44.4685 101.949 44.6008 101.141 44.8637C100.333 45.1282 99.6363 45.4228 99.0485 45.7461L99.0485 61.9131C98.843 62.0007 98.557 62.0812 98.1891 62.1545C97.8227 62.2278 97.4189 62.2652 96.9777 62.2652C96.1269 62.2652 95.4946 62.1042 95.0836 61.7809C94.6726 61.4575 94.4671 60.9143 94.4671 60.1512L94.4671 45.6139C94.4671 44.937 94.5994 44.3938 94.8638 43.9828C95.1282 43.5718 95.5679 43.1608 96.1859 42.7498C97.0079 42.2512 98.0799 41.7956 99.4006 41.3846C100.723 40.9736 102.22 40.7681 103.894 40.7681C106.744 40.7681 108.976 41.4062 110.591 42.6837C112.206 43.9613 113.014 45.8927 113.014 48.4765L113.014 61.9131C112.808 62.0007 112.514 62.0812 112.133 62.1545C111.751 62.2278 111.34 62.2652 110.899 62.2652C110.048 62.2652 109.416 62.1042 109.004 61.7809C108.593 61.4575 108.388 60.9143 108.388 60.1512L108.388 48.6533ZM155.613 49.1376C155.613 47.5223 155.179 46.3396 154.312 45.5909C153.447 44.8422 152.309 44.4685 150.899 44.4685C149.959 44.4685 149.1 44.6223 148.321 44.9298C147.544 45.2388 146.861 45.6139 146.273 46.0536L146.273 61.9131C146.068 62.0007 145.782 62.0812 145.414 62.1545C145.048 62.2278 144.644 62.2652 144.203 62.2652C143.352 62.2652 142.72 62.1042 142.309 61.7809C141.898 61.4575 141.692 60.9143 141.692 60.1512L141.692 33.4103C141.898 33.3514 142.191 33.2781 142.573 33.1905C142.955 33.1028 143.366 33.0582 143.806 33.0582C144.658 33.0582 145.282 33.2192 145.678 33.5425C146.075 33.8659 146.273 34.4091 146.273 35.1722V42.1333C146.949 41.7812 147.735 41.4651 148.63 41.1863C149.525 40.9075 150.531 40.7681 151.648 40.7681C154.203 40.7681 156.267 41.4435 157.837 42.7944C159.408 44.1452 160.194 46.2002 160.194 48.9608L160.194 61.9131C159.989 62.0007 159.696 62.0812 159.313 62.1545C158.931 62.2278 158.534 62.2652 158.123 62.2652C157.243 62.2652 156.604 62.1042 156.208 61.7809C155.811 61.4575 155.613 60.9143 155.613 60.1512L155.613 49.1376ZM190.899 59.049C191.928 59.049 192.823 58.947 193.586 58.7415C194.35 58.536 194.894 58.3147 195.217 58.0804L195.217 52.4859L190.414 52.9702C189.064 53.1168 188.05 53.4172 187.375 53.8727C186.7 54.3283 186.362 55.0252 186.362 55.9651C186.362 56.9351 186.728 57.691 187.463 58.2342C188.197 58.7774 189.342 59.049 190.899 59.049ZM126.846 59.049C127.875 59.049 128.77 58.947 129.533 58.7415C130.298 58.536 130.841 58.3147 131.164 58.0804V52.4859L126.361 52.9702C125.011 53.1168 123.997 53.4172 123.322 53.8727C122.647 54.3283 122.309 55.0252 122.309 55.9651C122.309 56.9351 122.675 57.691 123.41 58.2342C124.144 58.7774 125.289 59.049 126.846 59.049ZM78.0803 39.0494C77.7857 39.8426 77.4623 40.7379 77.1102 41.7367C76.7582 42.7354 76.3903 43.7845 76.0094 44.8867C75.6272 45.9875 75.2449 47.1041 74.8641 48.2351C74.4818 49.3646 74.1154 50.4597 73.7619 51.5159H82.4403C82.0595 50.3418 81.67 49.1591 81.2734 47.9707C80.8768 46.7808 80.4945 45.6426 80.1281 44.5562C79.7602 43.4698 79.4153 42.4495 79.0934 41.4938C78.7701 40.5396 78.5056 39.7248 78.3001 39.0494H78.0803ZM93.2341 16.2561C93.2341 18.5468 92.9036 20.5658 92.2426 22.3119C91.5815 24.0608 90.6647 25.5208 89.4891 26.6964C88.3151 27.8704 86.934 28.7585 85.3489 29.3607C83.7624 29.9628 82.0293 30.2646 80.1496 30.2646C78.27 30.2646 76.5311 29.9628 74.9302 29.3607C73.3293 28.7585 71.9483 27.8704 70.7886 26.6964C69.6289 25.5208 68.7178 24.0608 68.0582 22.3119C67.3971 20.5658 67.0666 18.5468 67.0666 16.2561C67.0666 13.964 67.4043 11.9535 68.0797 10.2204C68.7551 8.48731 69.6806 7.02581 70.8547 5.83736C72.0302 4.64747 73.417 3.75217 75.0179 3.15004C76.6188 2.54791 78.3289 2.24613 80.1496 2.24613C82.0006 2.24613 83.7179 2.54791 85.3044 3.15004C86.8909 3.75217 88.2705 4.64747 89.4446 5.83736C90.6201 7.02581 91.5456 8.48731 92.221 10.2204C92.8964 11.9535 93.2341 13.964 93.2341 16.2561ZM173.719 21.6738C174.13 23.348 174.93 24.5882 176.12 25.3958C177.308 26.2034 178.829 26.6073 180.678 26.6073C181.913 26.6073 183.042 26.4176 184.071 26.0353C185.099 25.653 185.921 25.2421 186.539 24.8023C187.361 25.2722 187.772 25.9318 187.772 26.784C187.772 27.2827 187.58 27.7454 187.198 28.1722C186.817 28.5976 186.296 28.964 185.635 29.273C184.974 29.582 184.196 29.8234 183.299 30.0002C182.404 30.1755 181.443 30.2646 180.415 30.2646C178.711 30.2646 177.162 30.0289 175.766 29.559C174.372 29.0891 173.175 28.3849 172.177 27.4451C171.178 26.5052 170.408 25.3455 169.864 23.9645C169.321 22.5849 169.048 20.984 169.048 19.1633C169.048 17.4014 169.314 15.8523 169.841 14.5158C170.37 13.1793 171.09 12.0627 172 11.1674C172.911 10.2707 173.983 9.58809 175.216 9.11817C176.449 8.64825 177.771 8.41401 179.181 8.41401C180.591 8.41401 181.875 8.64106 183.035 9.09661C184.196 9.55216 185.195 10.183 186.031 10.9907C186.868 11.7983 187.514 12.7611 187.97 13.8763C188.425 14.9929 188.653 16.2115 188.653 17.5322C188.653 18.2665 188.476 18.8026 188.124 19.1403C187.772 19.478 187.257 19.7065 186.582 19.8243L173.719 21.6738ZM125.922 29.9111C125.069 29.9111 124.439 29.7501 124.026 29.4268C123.615 29.1034 123.41 28.5602 123.41 27.7971L123.41 1.05768C123.615 0.998758 123.91 0.925462 124.291 0.836364C124.673 0.748703 125.084 0.704148 125.525 0.704148C126.376 0.704148 127.008 0.866536 127.419 1.18844C127.83 1.51178 128.036 2.055 128.036 2.81952L128.036 29.559C127.801 29.6481 127.5 29.7286 127.133 29.8019C126.765 29.8752 126.361 29.9111 125.922 29.9111ZM139.225 29.559C139.019 29.6481 138.733 29.7286 138.367 29.8019C137.999 29.8752 137.581 29.9111 137.111 29.9111C136.258 29.9111 135.628 29.7501 135.217 29.4268C134.806 29.1034 134.6 28.5602 134.6 27.7971L134.6 9.16273C134.834 9.10381 135.136 9.03052 135.503 8.94286C135.869 8.85519 136.289 8.81064 136.759 8.81064C137.609 8.81064 138.234 8.97159 138.63 9.29493C139.026 9.61827 139.225 10.1759 139.225 10.9691L139.225 29.559ZM159.446 16.2992C159.446 14.8607 159.042 13.803 158.234 13.1276C157.426 12.4522 156.333 12.1145 154.952 12.1145C153.924 12.1145 153.006 12.2467 152.198 12.5111C151.391 12.7755 150.694 13.0687 150.106 13.392L150.106 29.559C149.901 29.6481 149.615 29.7286 149.247 29.8019C148.88 29.8752 148.476 29.9111 148.035 29.9111C147.185 29.9111 146.552 29.7501 146.141 29.4268C145.73 29.1034 145.525 28.5602 145.525 27.7971L145.525 13.2598C145.525 12.5844 145.657 12.0412 145.921 11.6302C146.186 11.2192 146.625 10.8067 147.242 10.3957C148.065 9.89707 149.137 9.44151 150.458 9.03051C151.78 8.61951 153.278 8.41401 154.952 8.41401C157.8 8.41401 160.033 9.05208 161.647 10.3296C163.264 11.6072 164.071 13.5386 164.071 16.1239L164.071 29.559C163.866 29.6481 163.571 29.7286 163.189 29.8019C162.808 29.8752 162.397 29.9111 161.956 29.9111C161.105 29.9111 160.473 29.7501 160.062 29.4268C159.651 29.1034 159.446 28.5602 159.446 27.7971L159.446 16.2992ZM112.397 16.2992C112.397 14.8607 111.994 13.803 111.186 13.1276C110.377 12.4522 109.283 12.1145 107.904 12.1145C106.876 12.1145 105.958 12.2467 105.15 12.5111C104.343 12.7755 103.644 13.0687 103.058 13.392L103.058 29.559C102.852 29.6481 102.565 29.7286 102.199 29.8019C101.832 29.8752 101.428 29.9111 100.987 29.9111C100.135 29.9111 99.5041 29.7501 99.0931 29.4268C98.682 29.1034 98.4766 28.5602 98.4766 27.7971L98.4766 13.2598C98.4766 12.5844 98.6088 12.0412 98.8718 11.6302C99.1376 11.2192 99.5773 10.8067 100.194 10.3957C101.016 9.89707 102.088 9.44151 103.41 9.03051C104.732 8.61951 106.23 8.41401 107.904 8.41401C110.752 8.41401 112.984 9.05208 114.599 10.3296C116.214 11.6072 117.022 13.5386 117.022 16.1239L117.022 29.559C116.816 29.6481 116.523 29.7286 116.141 29.8019C115.76 29.8752 115.348 29.9111 114.908 29.9111C114.056 29.9111 113.425 29.7501 113.014 29.4268C112.603 29.1034 112.397 28.5602 112.397 27.7971V16.2992ZM88.4315 16.2561C88.4315 12.9666 87.6827 10.4618 86.1853 8.74454C84.6879 7.02581 82.676 6.16787 80.1496 6.16787C77.6836 6.16787 75.6933 7.033 74.1815 8.7661C72.6683 10.4992 71.9124 12.9954 71.9124 16.2561C71.9124 19.5441 72.6611 22.0561 74.1585 23.7877C75.6559 25.5208 77.6535 26.3874 80.1496 26.3874C82.676 26.3874 84.6879 25.5208 86.1853 23.7877C87.6827 22.0561 88.4315 19.5441 88.4315 16.2561ZM179.181 11.9823C177.566 11.9823 176.222 12.5255 175.15 13.6119C174.078 14.6983 173.513 16.2561 173.454 18.2823L184.291 16.7404C184.173 15.4183 183.689 14.2945 182.838 13.3704C181.986 12.445 180.767 11.9823 179.181 11.9823ZM134.114 2.68731C134.114 1.92422 134.379 1.28473 134.908 0.770265C135.436 0.257233 136.112 0 136.934 0C137.756 0 138.417 0.257233 138.917 0.770265C139.416 1.28473 139.666 1.92422 139.666 2.68731C139.666 3.45039 139.416 4.08987 138.917 4.60291C138.417 5.11738 137.756 5.37461 136.934 5.37461C136.112 5.37461 135.436 5.11738 134.908 4.60291C134.379 4.08987 134.114 3.45039 134.114 2.68731Z" fill="white"/>
<path fill-rule="evenodd" clip-rule="evenodd" d="M27.7285 41.4291L27.7285 67.2141L27.5724 67.2594L27.3057 67.31L27.1041 67.3302C27.0386 67.3352 26.9784 67.3351 26.918 67.3351C25.0755 67.3502 23.5702 65.6534 23.5551 63.5491L23.545 61.7272C23.6255 61.4956 23.7263 61.2337 23.8471 60.9568C23.8823 60.8762 23.9174 60.7955 23.9577 60.7149C24.0383 60.5488 24.124 60.3776 24.2146 60.2115L24.3857 59.8742L24.5216 59.5621L24.6224 59.2853L24.6978 59.0085L24.7482 58.7268C24.8489 57.9918 24.6929 57.2011 24.1694 56.2244C23.827 55.5851 23.6206 55.0163 23.4998 54.5028L23.4695 50.1229C23.6206 49.69 23.8471 49.1412 24.1492 48.5925C24.8187 47.3793 24.9897 46.2617 24.1037 44.6055C23.7564 43.9611 23.5502 43.3822 23.4243 42.8637L23.4191 41.4291H27.7285ZM30.4621 41.4291L30.603 63.494C30.608 64.0629 30.5024 64.6015 30.306 65.0898L30.1851 65.3617C30.1649 65.407 30.1448 65.4473 30.1246 65.4876L29.9233 65.8248L29.7171 66.1065L29.6364 66.2073C29.5962 66.2526 29.5558 66.2929 29.5155 66.3332C29.4702 66.3835 29.4249 66.4291 29.3796 66.4693C29.3343 66.5146 29.2889 66.5549 29.2436 66.5952L29.148 66.6704L28.9015 66.8469L28.7203 66.9526L28.7203 41.4291H30.4621ZM39.6697 20.9398C40.8276 21.5288 41.8393 22.2789 42.8008 23.2254C45.9674 26.3315 47.5733 30.5402 47.5733 30.5402H50.8907C51.6912 30.5402 52.5369 30.9025 52.5369 32.5588C52.5369 34.215 51.6813 34.6482 51.062 34.6482H49.305C54.1227 40.8704 54.6162 42.6726 54.6162 46.1865L54.6162 61.5408C54.6162 62.16 54.1177 62.6583 53.4985 62.6583H47.4425C46.8233 62.6583 46.3199 62.16 46.3199 61.5408L46.3199 58.7268H32.9188L32.8079 41.4291H32.9841C37.0467 41.4291 40.3491 38.1267 40.3491 34.0641V33.8527H44.7039C44.7039 33.8527 44.2456 28.748 40.3491 25.2744V24.0257C40.3491 22.9232 40.1077 21.8762 39.6697 20.9398ZM14.8811 21.076C14.4885 21.9821 14.2669 22.9786 14.2669 24.0257L14.2669 25.3801C12.3841 27.0918 10.6775 29.7549 9.97771 33.8527H14.2669V34.0641C14.2669 37.9405 17.2673 41.122 21.0731 41.4089L21.0832 42.874C21.0832 43.0502 21.1034 43.2264 21.1437 43.3976C21.3048 44.0923 21.5766 44.8573 22.0347 45.7131C22.4224 46.438 22.3872 46.9263 22.0952 47.4549C21.7176 48.1345 21.4458 48.8144 21.2545 49.3531C21.1689 49.6048 21.1236 49.8714 21.1287 50.1382L21.1537 54.518C21.1537 54.6993 21.1789 54.8752 21.2191 55.0514C21.3802 55.731 21.647 56.4863 22.1001 57.3321C22.4022 57.8959 22.4476 58.319 22.3167 58.7268H8.29145L8.29145 61.5408C8.29145 62.16 7.79295 62.6583 7.17375 62.6583H1.1177C0.498495 62.6583 0 62.16 0 61.5408L0 45.6679C0 40.3618 5.47224 34.6024 5.47224 34.6024H3.60949C2.98021 34.6024 2.18993 34.1044 2.18993 32.5337C2.18993 30.963 3.10105 30.5299 3.62964 30.5299H7.18382C7.18382 30.5299 7.85347 27.4288 11.6895 23.4618C12.6561 22.465 13.7132 21.6851 14.8811 21.076ZM13.8492 44.4142C13.8492 43.4275 13.0538 42.6321 12.0671 42.6321H8.50776C7.52609 42.6321 6.72563 43.4275 6.72563 44.4142L6.72563 49.1869C6.72563 50.1686 7.52609 50.969 8.50776 50.969H12.0671C13.0538 50.969 13.8492 50.1686 13.8492 49.1869L13.8492 44.4142ZM47.9206 44.4191C47.9206 43.4324 47.1202 42.6321 46.1335 42.6321H42.5543C41.5676 42.6321 40.767 43.4324 40.767 44.4191V49.1766C40.767 50.1683 41.5676 50.969 42.5543 50.969H46.1335C47.1202 50.969 47.9206 50.1683 47.9206 49.1766V44.4191ZM23.0666 19.0117C23.0666 16.7916 24.864 14.9946 27.079 14.9946C29.2941 14.9946 31.0914 16.7916 31.0914 19.0117H32.9841L33.3617 19.022L33.7292 19.0623L33.9961 19.1124L34.3484 19.198L34.6856 19.3037L34.872 19.3794L35.1288 19.49L35.1891 19.52C36.7597 20.2902 37.8674 21.8511 37.9933 23.6835L37.9982 23.8497L38.0033 24.0257L38.0033 34.0641C38.0033 36.8329 35.7529 39.0831 32.9841 39.0831H21.6269L21.2594 39.0678L21.0581 39.0477C18.5612 38.7658 16.6129 36.6416 16.6129 34.0641L16.6129 24.0257L16.618 23.7239C16.7288 21.9367 17.7708 20.4011 19.2659 19.6006L19.5378 19.4649L19.8197 19.3489L20.1066 19.2432L20.4038 19.1626L20.7056 19.0923L21.0129 19.0471L21.3248 19.0166L21.5564 19.0117H21.6269H23.0666ZM28.4585 17.5722C28.4686 17.5823 28.4784 17.5872 28.4885 17.5973C28.4986 17.6073 28.5036 17.6173 28.5087 17.6223C28.5187 17.6274 28.5239 17.6375 28.534 17.6425L28.5389 17.6523L28.5441 17.6577C28.5491 17.6678 28.554 17.6729 28.559 17.6779C28.5993 17.7182 28.6345 17.7584 28.6647 17.8038L28.6748 17.8185C28.6799 17.8185 28.6799 17.8238 28.6849 17.8288C28.851 18.0554 28.9718 18.3221 29.0322 18.609C29.0373 18.6342 29.0424 18.6542 29.0475 18.6793V18.6946C29.0475 18.6996 29.0524 18.7048 29.0524 18.7098C29.0574 18.7652 29.0676 18.8205 29.0676 18.8809V18.8961L29.0725 18.906C29.0725 18.9412 29.0725 18.9764 29.0725 19.0117C29.0725 20.1091 28.1815 21.0052 27.079 21.0052C25.9816 21.0052 25.0855 20.1091 25.0855 19.0117C25.0855 18.9764 25.0854 18.9412 25.0904 18.906C25.1408 17.8538 26.0118 17.0132 27.079 17.0132C27.6126 17.0132 28.1011 17.2299 28.4585 17.5722Z" fill="white"/>
<path fill-rule="evenodd" clip-rule="evenodd" d="M21.5829 15.4481C21.5829 15.4481 22.8792 12.2253 26.8684 12.2253C30.9487 12.2253 32.6454 15.5419 32.6454 15.5419C32.9083 16.0651 33.5465 16.2766 34.0698 16.0123C34.5931 15.7494 34.8045 15.1111 34.5415 14.5879C34.5415 14.5879 32.3124 10.1031 26.8684 10.1031C21.3345 10.1031 19.6035 14.6817 19.6035 14.6817C19.3921 15.2274 19.6643 15.8418 20.21 16.0546C20.7557 16.266 21.3715 15.9951 21.5829 15.4481ZM17.5329 12.7287C17.5329 12.7287 19.7462 7.14066 26.6226 7.14066C33.5888 7.14066 36.476 12.8212 36.476 12.8212C36.739 13.3445 37.3772 13.5559 37.9004 13.2929C38.4237 13.0287 38.6351 12.3904 38.3722 11.8672C38.3722 11.8672 34.9525 5.01722 26.6226 5.01722C18.2015 5.01722 15.5535 11.961 15.5535 11.961C15.3421 12.5067 15.613 13.1225 16.16 13.3339C16.7057 13.5453 17.3215 13.2744 17.5329 12.7287ZM14.1621 9.73318C14.1621 9.73318 17.159 2.12212 26.5063 2.12212C35.9422 2.12212 39.8468 9.82699 39.8468 9.82699C40.1098 10.3502 40.7493 10.5617 41.2726 10.2974C41.7958 10.0344 42.0059 9.39623 41.743 8.87297C41.743 8.87297 37.3058 0 26.5063 0C15.6156 0 12.1827 8.96678 12.1827 8.96678C11.9713 9.5125 12.2422 10.1283 12.7879 10.3397C13.3336 10.5511 13.9494 10.2802 14.1621 9.73318Z" fill="white"/>
</svg>
