<svg width="1266" height="689" viewBox="0 0 1266 689" fill="none" xmlns="http://www.w3.org/2000/svg">
<path fill-rule="evenodd" clip-rule="evenodd" d="M1175.86 415.929C1185.17 439.913 1212.2 451.849 1236.2 442.547C1260.2 433.245 1272.15 406.178 1262.84 382.195C1262.84 382.195 1116.8 0.917718 653.402 0.917698C193.985 0.917678 5.27135 378.104 5.27135 378.104C-6.28139 401.079 2.97166 429.154 25.9651 440.698C49.0144 452.297 77.0553 442.995 88.608 420.02C88.8884 419.515 254.272 94.1635 653.402 94.1636C1048.38 94.1636 1175.46 415.032 1175.86 415.929ZM1178.83 414.752C1178.83 414.752 1051.3 90.9698 653.402 90.9698C251.86 90.9697 85.7478 418.563 85.7478 418.563C74.9802 439.969 48.8462 448.599 27.4232 437.84C6.05626 427.081 -2.57985 400.967 8.18773 379.561C8.18773 379.561 196.06 4.16827 653.402 4.16829C1114.5 4.16831 1259.81 383.371 1259.81 383.371C1268.5 405.674 1257.4 430.835 1235.02 439.52C1212.7 448.206 1187.52 437.111 1178.83 414.752ZM1032.74 542.909C1042.05 566.893 1069.13 578.829 1093.14 569.527C1117.14 560.225 1129.08 533.159 1119.72 509.175C1119.1 507.494 1005.99 213.747 648.467 213.747C293.865 213.747 148.391 505.084 148.391 505.084C136.782 528.059 146.091 556.134 169.085 567.677C192.078 579.277 220.175 569.975 231.728 547C232.008 546.44 354.209 306.992 648.467 306.992C938.576 306.992 1032.34 541.957 1032.74 542.909ZM1035.76 541.732C1035.76 541.732 941.492 303.743 648.467 303.743C351.741 303.743 228.867 545.543 228.867 545.543C218.044 566.949 191.966 575.579 170.543 564.819C149.12 554.06 140.483 527.947 151.251 506.541C151.251 506.541 295.94 216.941 648.467 216.941C1004.7 216.941 1116.75 510.351 1116.75 510.351C1125.38 532.71 1114.28 557.871 1091.96 566.501C1069.58 575.187 1044.46 564.091 1035.76 541.732ZM860.847 658.29C870.156 682.273 897.244 694.209 921.246 684.907C945.249 675.605 957.138 648.539 947.829 624.555C947.268 623.098 873.185 429.378 638.036 429.378C406.757 429.378 311.587 619.176 310.914 620.464C299.361 643.44 308.615 671.515 331.664 683.058C354.657 694.658 382.698 685.355 394.307 662.38C394.644 661.652 466.315 522.624 638.036 522.624C805.326 522.624 860.286 656.945 860.847 658.29ZM863.875 657.113C863.875 657.113 808.523 519.373 638.036 519.373C463.848 519.373 391.391 660.923 391.391 660.923C380.623 682.329 354.489 690.959 333.122 680.2C311.699 669.441 303.063 643.328 313.831 621.922C313.831 621.922 408.047 432.628 638.036 432.628C871.727 432.628 944.856 625.732 944.856 625.732C953.493 648.034 942.389 673.195 920.069 681.881C897.693 690.511 872.512 679.416 863.875 657.113Z" fill="white" fill-opacity="0.3"/>
</svg>
