<svg fill="#2d69b3" width="30" height="30" viewBox="0 0 30 30" className="progress-symbol-grey" xmlns="http://www.w3.org/2000/svg">
<path fill-rule="evenodd" clip-rule="evenodd" d="M4.55496 26.3383V24.7925H25.4405V26.3383C25.4405 26.6773 25.7153 26.9521 26.0542 26.9521H29.3817C29.7206 26.9521 29.9954 26.6773 29.9954 26.3383V17.9055C29.9954 15.9773 29.7252 14.9871 27.0771 11.5688H28.042H28.058C28.3962 11.5612 28.8542 11.3162 28.8542 10.4215C28.8542 9.95281 28.7305 9.67266 28.5496 9.51159C28.3809 9.36045 28.1618 9.31382 27.9488 9.31382H26.126C26.126 9.31382 26.0283 9.05739 25.8344 8.65281C25.6947 8.36197 25.5053 7.99472 25.2656 7.59014C25.2397 7.5451 25.2122 7.50012 25.1847 7.45432L25.1748 7.43829L25.1504 7.39781L25.1435 7.38715C25.1084 7.3299 25.0718 7.27112 25.0344 7.21234C25.0099 7.17493 24.9855 7.13677 24.9603 7.09783C24.903 7.01005 24.8443 6.92146 24.7824 6.83215L24.7695 6.81381L24.7473 6.78101C24.7183 6.73903 24.6886 6.69701 24.6588 6.65503L24.6496 6.64287L24.6191 6.60008L24.5878 6.55737L24.5565 6.51383C24.5458 6.50009 24.5351 6.48562 24.5244 6.47112L24.4924 6.42833C24.4817 6.41382 24.471 6.40012 24.4603 6.38561L24.4275 6.34282L24.4053 6.31382C24.3221 6.20619 24.2366 6.09856 24.1473 5.99245L24.1191 5.95809L24.0916 5.92603C24.0756 5.90618 24.0588 5.88637 24.042 5.86729C23.9771 5.79172 23.9107 5.71762 23.8435 5.64357C23.7817 5.57563 23.7183 5.50848 23.6534 5.44207C23.6053 5.39322 23.5565 5.3436 23.5076 5.29551C23.4435 5.23292 23.3786 5.17107 23.3137 5.11153C23.2954 5.09474 23.2779 5.07873 23.2603 5.0627C23.2122 5.01919 23.1641 4.97719 23.116 4.93597C23.0931 4.91613 23.071 4.89706 23.0481 4.87798C22.9649 4.80851 22.8809 4.74129 22.7954 4.6764C22.7229 4.62068 22.6489 4.56649 22.5741 4.51381L22.529 4.4825C22.4107 4.40159 22.2901 4.32372 22.1672 4.25044C22.1397 4.23365 22.1115 4.21764 22.084 4.20161L22.0695 4.19319C22.0534 4.18403 22.0374 4.17491 22.0222 4.16575L21.974 4.13899L21.9534 4.12833C21.9122 4.10543 21.871 4.08328 21.829 4.06191C21.7641 4.02756 21.6985 3.99475 21.6313 3.96269L21.5809 3.93906C21.4641 3.88409 21.345 3.83213 21.2229 3.78251C21.1969 3.77258 21.171 3.76194 21.145 3.75202C20.5672 3.52606 19.9237 3.35811 19.187 3.2375C19.1351 3.2291 19.0832 3.2207 19.0298 3.2123C18.9198 3.1955 18.8076 3.18021 18.6939 3.16571L18.6908 3.16496L18.671 3.16265C18.1488 3.09624 17.5825 3.04972 16.9618 3.02071C16.9336 3.01919 16.9046 3.01767 16.8756 3.01691L16.7893 3.01303C16.7198 3.00998 16.6496 3.00772 16.5786 3.00543C16.5313 3.00314 16.4832 3.00159 16.4351 3.00006L16.345 2.99783C16.1038 2.99096 15.8549 2.98633 15.5985 2.98404C11.487 2.9451 8.53052 3.24894 6.42213 5.42604C4.31373 7.60391 3.94658 9.30621 3.94658 9.30621H1.9939C1.70535 9.30621 1.2046 9.5467 1.2046 10.4085C1.2046 11.2711 1.6374 11.5436 1.98473 11.5436C2.33206 11.5436 3.00688 11.5436 3.00688 11.5436C3.00688 11.5436 2.98855 11.5635 2.95496 11.6001L2.93282 11.6245C2.47022 12.1345 0 14.9811 0 17.6223V26.3383C0 26.6773 0.275595 26.9521 0.614526 26.9521H3.94121C4.28014 26.9521 4.55496 26.6773 4.55496 26.3383ZM26.2198 15.6223C26.1641 15.6238 26.1046 15.6307 26.0404 15.6452C25.0183 15.878 23.3786 16.6558 22.629 16.8444C21.8794 17.033 22.3534 18.3719 21.3641 19.1543C20.8153 19.5887 21.1641 19.7872 21.8932 19.7895H21.9244C22.5076 19.7872 23.3229 19.6627 24.1145 19.436C25.9252 18.9169 26.9954 18.3848 27.0077 17.02C27.0077 17.02 27.0084 16.9925 27.0077 16.9452C27.0054 16.7605 26.9786 16.2734 26.7763 15.9451C26.6763 15.7825 26.5336 15.6589 26.3298 15.6291L26.3198 15.6276C26.3168 15.6276 26.3137 15.6268 26.3107 15.6268L26.3046 15.6261C26.3 15.6253 26.2954 15.6253 26.2908 15.6245C26.2748 15.623 26.258 15.6223 26.2405 15.6223H26.2305H26.2198ZM3.76946 15.6223C3.82747 15.6223 3.89083 15.6299 3.95877 15.6452C4.98091 15.878 6.62138 16.6558 7.371 16.8444C8.11985 17.033 7.64579 18.3719 8.63587 19.1543C9.17709 19.5826 8.84503 19.7818 8.13663 19.7895H8.1061C7.59236 19.791 6.88933 19.6956 6.1794 19.5154C6.08093 19.4902 5.98319 19.4643 5.88472 19.436C4.85113 19.1398 4.05879 18.8391 3.56643 18.381C3.50383 18.3223 3.44503 18.2612 3.39236 18.1971L3.38319 18.1864L3.37406 18.1742C3.3504 18.1452 3.32823 18.1154 3.30686 18.0849L3.30384 18.0803L3.2893 18.0589L3.27786 18.0413C3.26412 18.0207 3.25038 17.9993 3.23816 17.978L3.23283 17.9696L3.22213 17.9505C3.20839 17.9269 3.19542 17.9016 3.18244 17.8764C3.16946 17.8497 3.1565 17.823 3.14505 17.7955L3.13816 17.7803L3.12824 17.7559L3.11833 17.7307C3.11451 17.7215 3.11068 17.7123 3.10763 17.7032L3.09924 17.6795L3.09086 17.6544L3.08322 17.6322C3.06719 17.5811 3.05342 17.5284 3.04121 17.4734L3.03968 17.4673L3.03666 17.452C3.00842 17.3177 2.99391 17.1742 2.99238 17.02C2.99238 17.02 2.9435 15.6185 3.76946 15.6223ZM24.5504 11.1237C24.5435 11.0596 24.5008 10.678 24.355 10.1306C24.0504 8.9894 23.2985 7.12603 21.4954 5.90389C20.0542 4.92755 17.5267 4.62759 15.2168 4.62377L15.1138 4.62302C13.0519 4.62684 11.1809 4.86271 10.4382 5.05584C8.85269 5.4673 6.19924 6.92761 5.48015 11.1337H24.5512L24.5504 11.1237Z" />
</svg>
