<svg width="263" height="112" viewBox="0 0 263 112" fill="none" xmlns="http://www.w3.org/2000/svg">
<path fill-rule="evenodd" clip-rule="evenodd" d="M-16.2058 -7.50997C-18.7664 -14.3967 -26.2013 -17.824 -32.8033 -15.1529C-39.4052 -12.4819 -42.6908 -4.71019 -40.1302 2.17654C-40.1302 2.17654 0.0368805 111.656 127.495 111.656C253.857 111.656 305.763 3.3511 305.763 3.3511C308.94 -3.246 306.395 -11.3074 300.071 -14.622C293.731 -17.9528 286.019 -15.2817 282.841 -8.68455C282.764 -8.53974 237.275 84.8816 127.495 84.8817C18.8555 84.8817 -16.0979 -7.25252 -16.2058 -7.50997ZM-17.0234 -7.17213C-17.0234 -7.17213 18.0534 85.7987 127.495 85.7987C237.939 85.7987 283.628 -8.26619 283.628 -8.26619C286.589 -14.4127 293.777 -16.8908 299.67 -13.8014C305.547 -10.712 307.922 -3.21384 304.961 2.93272C304.961 2.93272 253.286 110.723 127.495 110.723C0.669304 110.723 -39.2972 1.8387 -39.2972 1.8387C-41.6881 -4.56532 -38.634 -11.79 -32.4794 -14.284C-26.3402 -16.778 -19.4143 -13.5922 -17.0234 -7.17213ZM23.1591 -43.9711C20.5985 -50.8578 13.1482 -54.2851 6.54622 -51.614C-0.0557318 -48.943 -3.34127 -41.1713 -0.765273 -34.2846C-0.595595 -33.8018 30.5169 50.5444 128.852 50.5444C226.385 50.5444 266.398 -33.11 266.398 -33.11C269.591 -39.7071 267.03 -47.7683 260.706 -51.0829C254.382 -54.4137 246.654 -51.7427 243.476 -45.1456C243.399 -44.9847 209.788 23.77 128.852 23.77C49.0579 23.77 23.2671 -43.6975 23.1591 -43.9711ZM22.3261 -43.633C22.3261 -43.633 48.2558 24.7032 128.852 24.7032C210.466 24.7032 244.263 -44.7273 244.263 -44.7273C247.24 -50.8738 254.412 -53.3517 260.305 -50.2623C266.197 -47.1729 268.573 -39.6749 265.611 -33.5284C265.611 -33.5284 225.814 49.6273 128.852 49.6273C30.8717 49.6274 0.0523048 -34.6224 0.0523048 -34.6224C-2.32316 -41.0425 0.730889 -48.2672 6.87009 -50.7451C13.0247 -53.2391 19.9352 -50.0531 22.3261 -43.633ZM70.4371 -77.1013C67.8766 -83.988 60.4262 -87.4153 53.8243 -84.7443C47.2223 -82.0733 43.9522 -74.3015 46.5128 -67.4148C46.667 -66.9965 67.0436 -11.3717 131.721 -11.3717C195.334 -11.3717 221.511 -65.8702 221.696 -66.2402C224.873 -72.8373 222.328 -80.8987 215.989 -84.2134C209.664 -87.5441 201.952 -84.873 198.759 -78.2759C198.666 -78.0667 178.953 -38.1463 131.721 -38.1463C85.708 -38.1463 70.5914 -76.7151 70.4371 -77.1013ZM69.6041 -76.7635C69.6041 -76.7635 84.8287 -37.2129 131.721 -37.2129C179.632 -37.2129 199.561 -77.8575 199.561 -77.8575C202.522 -84.0041 209.711 -86.4821 215.587 -83.3928C221.48 -80.3034 223.855 -72.8052 220.894 -66.6586C220.894 -66.6586 194.98 -12.3049 131.721 -12.3049C67.4446 -12.3049 47.3303 -67.7526 47.3303 -67.7526C44.9549 -74.1567 48.0089 -81.3813 54.1481 -83.8753C60.3027 -86.3533 67.2286 -83.1675 69.6041 -76.7635Z" fill="white" fill-opacity="0.3"/>
</svg>
