<svg width="160" height="42" viewBox="0 0 160 42" fill="none" xmlns="http://www.w3.org/2000/svg">
<rect x="0.5" y="1.39478" width="159" height="40" rx="4.5" fill="white" stroke="#2D69B3"/>
<path d="M71.464 10.344V12.424H66.68V15.376H70.664V17.464H66.68V22H63.96V10.344H71.464ZM78.5943 22C78.3596 22 78.1809 21.968 78.0583 21.904C77.9409 21.84 77.8423 21.7067 77.7623 21.504L77.5863 21.048C77.3783 21.224 77.1783 21.3787 76.9863 21.512C76.7943 21.6453 76.5943 21.76 76.3863 21.856C76.1836 21.9467 75.9649 22.0133 75.7303 22.056C75.5009 22.104 75.2449 22.128 74.9623 22.128C74.5836 22.128 74.2396 22.08 73.9303 21.984C73.6209 21.8827 73.3569 21.736 73.1383 21.544C72.9249 21.352 72.7596 21.1147 72.6423 20.832C72.5249 20.544 72.4663 20.2133 72.4663 19.84C72.4663 19.5467 72.5409 19.2453 72.6903 18.936C72.8396 18.6267 73.0983 18.3467 73.4663 18.096C73.8343 17.84 74.3303 17.6267 74.9543 17.456C75.5783 17.2853 76.3649 17.1893 77.3143 17.168V16.816C77.3143 16.3307 77.2129 15.9813 77.0103 15.768C76.8129 15.5493 76.5303 15.44 76.1623 15.44C75.8689 15.44 75.6289 15.472 75.4423 15.536C75.2556 15.6 75.0876 15.672 74.9383 15.752C74.7943 15.832 74.6529 15.904 74.5143 15.968C74.3756 16.032 74.2103 16.064 74.0182 16.064C73.8476 16.064 73.7009 16.024 73.5783 15.944C73.4609 15.8587 73.3676 15.7547 73.2983 15.632L72.8503 14.856C73.3516 14.4133 73.9063 14.0853 74.5143 13.872C75.1276 13.6533 75.7836 13.544 76.4823 13.544C76.9836 13.544 77.4343 13.6267 77.8343 13.792C78.2396 13.952 78.5809 14.1787 78.8583 14.472C79.1409 14.76 79.3569 15.104 79.5063 15.504C79.6556 15.904 79.7303 16.3413 79.7303 16.816V22H78.5943ZM75.7463 20.488C76.0663 20.488 76.3463 20.432 76.5863 20.32C76.8263 20.208 77.0689 20.0267 77.3143 19.776V18.624C76.8183 18.6453 76.4103 18.688 76.0903 18.752C75.7703 18.816 75.5169 18.896 75.3303 18.992C75.1436 19.088 75.0129 19.1973 74.9383 19.32C74.8689 19.4427 74.8343 19.576 74.8343 19.72C74.8343 20.0027 74.9116 20.2027 75.0663 20.32C75.2209 20.432 75.4476 20.488 75.7463 20.488ZM87.4753 15.672C87.4006 15.7627 87.3286 15.8347 87.2593 15.888C87.1899 15.9413 87.0913 15.968 86.9633 15.968C86.8406 15.968 86.7286 15.9387 86.6273 15.88C86.5313 15.8213 86.4219 15.7573 86.2993 15.688C86.1766 15.6133 86.0326 15.5467 85.8673 15.488C85.7019 15.4293 85.4966 15.4 85.2513 15.4C84.9473 15.4 84.6833 15.456 84.4593 15.568C84.2406 15.68 84.0593 15.84 83.9153 16.048C83.7713 16.256 83.6646 16.512 83.5953 16.816C83.5259 17.1147 83.4913 17.4533 83.4913 17.832C83.4913 18.6267 83.6433 19.2373 83.9473 19.664C84.2566 20.0907 84.6806 20.304 85.2193 20.304C85.5073 20.304 85.7339 20.2693 85.8993 20.2C86.0699 20.1253 86.2139 20.0453 86.3313 19.96C86.4486 19.8693 86.5553 19.7867 86.6513 19.712C86.7526 19.6373 86.8779 19.6 87.0273 19.6C87.2246 19.6 87.3739 19.672 87.4753 19.816L88.1953 20.704C87.9393 20.9973 87.6699 21.2373 87.3873 21.424C87.1046 21.6053 86.8139 21.7493 86.5153 21.856C86.2219 21.9573 85.9259 22.0267 85.6273 22.064C85.3286 22.1067 85.0379 22.128 84.7552 22.128C84.2486 22.128 83.7633 22.032 83.2993 21.84C82.8406 21.648 82.4353 21.3707 82.0833 21.008C81.7366 20.64 81.4593 20.1893 81.2513 19.656C81.0486 19.1227 80.9473 18.5147 80.9473 17.832C80.9473 17.2347 81.0353 16.6773 81.2113 16.16C81.3926 15.6373 81.6566 15.1867 82.0033 14.808C82.3553 14.424 82.7873 14.1227 83.2993 13.904C83.8166 13.6853 84.4139 13.576 85.0913 13.576C85.7419 13.576 86.3126 13.68 86.8033 13.888C87.2939 14.096 87.7366 14.4 88.1313 14.8L87.4753 15.672ZM92.8245 13.576C93.3738 13.576 93.8752 13.6613 94.3285 13.832C94.7872 14.0027 95.1792 14.2507 95.5045 14.576C95.8352 14.9013 96.0912 15.3013 96.2725 15.776C96.4592 16.2453 96.5525 16.7787 96.5525 17.376C96.5525 17.5627 96.5445 17.7147 96.5285 17.832C96.5125 17.9493 96.4832 18.0427 96.4405 18.112C96.3978 18.1813 96.3392 18.2293 96.2645 18.256C96.1952 18.2827 96.1045 18.296 95.9925 18.296H91.2085C91.2885 18.9893 91.4992 19.4933 91.8405 19.808C92.1818 20.1173 92.6218 20.272 93.1605 20.272C93.4485 20.272 93.6965 20.2373 93.9045 20.168C94.1125 20.0987 94.2965 20.0213 94.4565 19.936C94.6218 19.8507 94.7712 19.7733 94.9045 19.704C95.0432 19.6347 95.1872 19.6 95.3365 19.6C95.5338 19.6 95.6832 19.672 95.7845 19.816L96.5045 20.704C96.2485 20.9973 95.9712 21.2373 95.6725 21.424C95.3792 21.6053 95.0752 21.7493 94.7605 21.856C94.4512 21.9573 94.1392 22.0267 93.8245 22.064C93.5152 22.1067 93.2192 22.128 92.9365 22.128C92.3552 22.128 91.8085 22.0347 91.2965 21.848C90.7898 21.656 90.3445 21.3733 89.9605 21C89.5818 20.6267 89.2805 20.1627 89.0565 19.608C88.8378 19.0533 88.7285 18.408 88.7285 17.672C88.7285 17.1173 88.8218 16.592 89.0085 16.096C89.2005 15.6 89.4725 15.1653 89.8245 14.792C90.1818 14.4187 90.6112 14.1227 91.1125 13.904C91.6192 13.6853 92.1898 13.576 92.8245 13.576ZM92.8725 15.288C92.3978 15.288 92.0272 15.424 91.7605 15.696C91.4938 15.9627 91.3178 16.3493 91.2325 16.856H94.3285C94.3285 16.6587 94.3018 16.4667 94.2485 16.28C94.2005 16.0933 94.1178 15.928 94.0005 15.784C93.8885 15.6347 93.7392 15.5147 93.5525 15.424C93.3658 15.3333 93.1392 15.288 92.8725 15.288ZM97.9756 22V10.024H100.456V14.584C100.765 14.28 101.114 14.0373 101.504 13.856C101.898 13.6693 102.36 13.576 102.888 13.576C103.32 13.576 103.72 13.6693 104.088 13.856C104.456 14.0427 104.773 14.3173 105.04 14.68C105.306 15.0373 105.514 15.4773 105.664 16C105.818 16.5227 105.896 17.1173 105.896 17.784C105.896 18.408 105.808 18.984 105.632 19.512C105.461 20.04 105.218 20.4987 104.904 20.888C104.594 21.2773 104.221 21.5813 103.784 21.8C103.352 22.0187 102.872 22.128 102.344 22.128C102.098 22.128 101.877 22.104 101.68 22.056C101.488 22.008 101.309 21.9413 101.144 21.856C100.984 21.7653 100.834 21.6587 100.696 21.536C100.562 21.4133 100.432 21.28 100.304 21.136L100.216 21.552C100.178 21.7227 100.109 21.84 100.008 21.904C99.9116 21.968 99.7836 22 99.6236 22H97.9756ZM102.024 15.44C101.842 15.44 101.677 15.4587 101.528 15.496C101.384 15.528 101.248 15.576 101.12 15.64C100.997 15.704 100.882 15.7867 100.776 15.888C100.669 15.984 100.562 16.096 100.456 16.224V19.744C100.642 19.952 100.845 20.0987 101.064 20.184C101.282 20.264 101.512 20.304 101.752 20.304C101.981 20.304 102.192 20.2587 102.384 20.168C102.576 20.0773 102.741 19.9333 102.88 19.736C103.024 19.5333 103.136 19.272 103.216 18.952C103.296 18.632 103.336 18.2427 103.336 17.784C103.336 17.3467 103.304 16.9787 103.24 16.68C103.176 16.3813 103.085 16.1413 102.968 15.96C102.856 15.7733 102.72 15.64 102.56 15.56C102.4 15.48 102.221 15.44 102.024 15.44ZM110.953 13.576C111.582 13.576 112.156 13.6747 112.673 13.872C113.19 14.0693 113.633 14.352 114.001 14.72C114.374 15.088 114.662 15.536 114.865 16.064C115.073 16.5867 115.177 17.176 115.177 17.832C115.177 18.4933 115.073 19.0907 114.865 19.624C114.662 20.152 114.374 20.6027 114.001 20.976C113.633 21.344 113.19 21.6293 112.673 21.832C112.156 22.0293 111.582 22.128 110.953 22.128C110.318 22.128 109.74 22.0293 109.217 21.832C108.7 21.6293 108.252 21.344 107.873 20.976C107.5 20.6027 107.209 20.152 107.001 19.624C106.798 19.0907 106.697 18.4933 106.697 17.832C106.697 17.176 106.798 16.5867 107.001 16.064C107.209 15.536 107.5 15.088 107.873 14.72C108.252 14.352 108.7 14.0693 109.217 13.872C109.74 13.6747 110.318 13.576 110.953 13.576ZM110.953 20.288C111.524 20.288 111.942 20.088 112.209 19.688C112.481 19.2827 112.617 18.6693 112.617 17.848C112.617 17.0267 112.481 16.416 112.209 16.016C111.942 15.616 111.524 15.416 110.953 15.416C110.366 15.416 109.937 15.616 109.665 16.016C109.393 16.416 109.257 17.0267 109.257 17.848C109.257 18.6693 109.393 19.2827 109.665 19.688C109.937 20.088 110.366 20.288 110.953 20.288ZM120.234 13.576C120.863 13.576 121.437 13.6747 121.954 13.872C122.471 14.0693 122.914 14.352 123.282 14.72C123.655 15.088 123.943 15.536 124.146 16.064C124.354 16.5867 124.458 17.176 124.458 17.832C124.458 18.4933 124.354 19.0907 124.146 19.624C123.943 20.152 123.655 20.6027 123.282 20.976C122.914 21.344 122.471 21.6293 121.954 21.832C121.437 22.0293 120.863 22.128 120.234 22.128C119.599 22.128 119.021 22.0293 118.498 21.832C117.981 21.6293 117.533 21.344 117.154 20.976C116.781 20.6027 116.49 20.152 116.282 19.624C116.079 19.0907 115.978 18.4933 115.978 17.832C115.978 17.176 116.079 16.5867 116.282 16.064C116.49 15.536 116.781 15.088 117.154 14.72C117.533 14.352 117.981 14.0693 118.498 13.872C119.021 13.6747 119.599 13.576 120.234 13.576ZM120.234 20.288C120.805 20.288 121.223 20.088 121.49 19.688C121.762 19.2827 121.898 18.6693 121.898 17.848C121.898 17.0267 121.762 16.416 121.49 16.016C121.223 15.616 120.805 15.416 120.234 15.416C119.647 15.416 119.218 15.616 118.946 16.016C118.674 16.416 118.538 17.0267 118.538 17.848C118.538 18.6693 118.674 19.2827 118.946 19.688C119.218 20.088 119.647 20.288 120.234 20.288ZM128.299 10.024V16.736H128.667C128.822 16.736 128.939 16.7147 129.019 16.672C129.105 16.6293 129.185 16.552 129.259 16.44L130.827 14.104C130.918 13.9653 131.025 13.864 131.147 13.8C131.275 13.736 131.435 13.704 131.627 13.704H133.899L131.755 16.656C131.654 16.7947 131.542 16.9173 131.419 17.024C131.302 17.1307 131.174 17.2267 131.035 17.312C131.275 17.4933 131.483 17.7333 131.659 18.032L133.995 22H131.755C131.569 22 131.406 21.9707 131.267 21.912C131.134 21.848 131.025 21.7387 130.939 21.584L129.371 18.648C129.297 18.5147 129.219 18.4293 129.139 18.392C129.059 18.3493 128.939 18.328 128.779 18.328H128.299V22H125.819V10.024H128.299Z" fill="#2D69B3"/>
<path d="M43.4296 34.9102C44.247 34.9102 44.9098 34.2473 44.9098 33.43V9.57046C44.9098 8.75278 44.247 8.09015 43.4296 8.09015H19.5701C18.7524 8.09015 18.0898 8.75278 18.0898 9.57046V33.43C18.0898 34.2473 18.7524 34.9102 19.5701 34.9102H43.4296Z" fill="#3B5998"/>
<path d="M36.5949 34.9102V24.5241H40.0812L40.6032 20.4764H36.5949V17.8921C36.5949 16.7202 36.9203 15.9217 38.6009 15.9217L40.7443 15.9207V12.3004C40.3735 12.2512 39.1012 12.141 37.621 12.141C34.5307 12.141 32.4151 14.0272 32.4151 17.4914V20.4764H28.9199V24.5241H32.4151V34.9102H36.5949Z" fill="white"/>
<path d="M65.645 28.935V34H64.755V28.935H65.645ZM65.835 27.345C65.835 27.4317 65.8167 27.5133 65.78 27.59C65.7467 27.6633 65.7 27.73 65.64 27.79C65.5833 27.8467 65.515 27.8917 65.435 27.925C65.3583 27.9583 65.2767 27.975 65.19 27.975C65.1033 27.975 65.0217 27.9583 64.945 27.925C64.8717 27.8917 64.8067 27.8467 64.75 27.79C64.6933 27.73 64.6483 27.6633 64.615 27.59C64.5817 27.5133 64.565 27.4317 64.565 27.345C64.565 27.2583 64.5817 27.1767 64.615 27.1C64.6483 27.02 64.6933 26.9517 64.75 26.895C64.8067 26.835 64.8717 26.7883 64.945 26.755C65.0217 26.7217 65.1033 26.705 65.19 26.705C65.2767 26.705 65.3583 26.7217 65.435 26.755C65.515 26.7883 65.5833 26.835 65.64 26.895C65.7 26.9517 65.7467 27.02 65.78 27.1C65.8167 27.1767 65.835 27.2583 65.835 27.345ZM68.0273 26.635V34H67.1373V26.635H68.0273ZM72.8606 30.915C72.8606 30.7083 72.8306 30.52 72.7706 30.35C72.714 30.1767 72.629 30.0283 72.5156 29.905C72.4056 29.7783 72.2706 29.6817 72.1106 29.615C71.9506 29.545 71.769 29.51 71.5656 29.51C71.139 29.51 70.8006 29.635 70.5506 29.885C70.304 30.1317 70.1506 30.475 70.0906 30.915H72.8606ZM73.5806 33.29C73.4706 33.4233 73.339 33.54 73.1856 33.64C73.0323 33.7367 72.8673 33.8167 72.6906 33.88C72.5173 33.9433 72.3373 33.99 72.1506 34.02C71.964 34.0533 71.779 34.07 71.5956 34.07C71.2456 34.07 70.9223 34.0117 70.6256 33.895C70.3323 33.775 70.0773 33.6017 69.8606 33.375C69.6473 33.145 69.4806 32.8617 69.3606 32.525C69.2406 32.1883 69.1806 31.8017 69.1806 31.365C69.1806 31.0117 69.234 30.6817 69.3406 30.375C69.4506 30.0683 69.6073 29.8033 69.8106 29.58C70.014 29.3533 70.2623 29.1767 70.5556 29.05C70.849 28.92 71.179 28.855 71.5456 28.855C71.849 28.855 72.129 28.9067 72.3856 29.01C72.6456 29.11 72.869 29.2567 73.0556 29.45C73.2456 29.64 73.394 29.8767 73.5006 30.16C73.6073 30.44 73.6606 30.76 73.6606 31.12C73.6606 31.26 73.6456 31.3533 73.6156 31.4C73.5856 31.4467 73.529 31.47 73.4456 31.47H70.0606C70.0706 31.79 70.114 32.0683 70.1906 32.305C70.2706 32.5417 70.3806 32.74 70.5206 32.9C70.6606 33.0567 70.8273 33.175 71.0206 33.255C71.214 33.3317 71.4306 33.37 71.6706 33.37C71.894 33.37 72.0856 33.345 72.2456 33.295C72.409 33.2417 72.549 33.185 72.6656 33.125C72.7823 33.065 72.879 33.01 72.9556 32.96C73.0356 32.9067 73.104 32.88 73.1606 32.88C73.234 32.88 73.2906 32.9083 73.3306 32.965L73.5806 33.29ZM79.0774 31.525C79.2574 31.525 79.4158 31.5 79.5524 31.45C79.6891 31.4 79.8041 31.33 79.8974 31.24C79.9908 31.15 80.0608 31.0433 80.1074 30.92C80.1541 30.7933 80.1774 30.655 80.1774 30.505C80.1774 30.195 80.0824 29.9483 79.8924 29.765C79.7058 29.5817 79.4341 29.49 79.0774 29.49C78.7174 29.49 78.4424 29.5817 78.2524 29.765C78.0658 29.9483 77.9724 30.195 77.9724 30.505C77.9724 30.655 77.9958 30.7933 78.0424 30.92C78.0924 31.0433 78.1641 31.15 78.2574 31.24C78.3508 31.33 78.4658 31.4 78.6024 31.45C78.7391 31.5 78.8974 31.525 79.0774 31.525ZM80.6824 34.275C80.6824 34.1517 80.6474 34.0517 80.5774 33.975C80.5074 33.8983 80.4124 33.8383 80.2924 33.795C80.1758 33.7517 80.0391 33.7217 79.8824 33.705C79.7258 33.685 79.5591 33.67 79.3824 33.66C79.2091 33.65 79.0324 33.64 78.8524 33.63C78.6724 33.62 78.4991 33.6033 78.3324 33.58C78.1458 33.6667 77.9924 33.7767 77.8724 33.91C77.7558 34.04 77.6974 34.1933 77.6974 34.37C77.6974 34.4833 77.7258 34.5883 77.7824 34.685C77.8424 34.785 77.9324 34.87 78.0524 34.94C78.1724 35.0133 78.3224 35.07 78.5024 35.11C78.6858 35.1533 78.9008 35.175 79.1474 35.175C79.3874 35.175 79.6024 35.1533 79.7924 35.11C79.9824 35.0667 80.1424 35.005 80.2724 34.925C80.4058 34.845 80.5074 34.75 80.5774 34.64C80.6474 34.53 80.6824 34.4083 80.6824 34.275ZM81.5874 29.135V29.465C81.5874 29.575 81.5174 29.645 81.3774 29.675L80.8024 29.75C80.9158 29.97 80.9724 30.2133 80.9724 30.48C80.9724 30.7267 80.9241 30.9517 80.8274 31.155C80.7341 31.355 80.6041 31.5267 80.4374 31.67C80.2708 31.8133 80.0708 31.9233 79.8374 32C79.6041 32.0767 79.3508 32.115 79.0774 32.115C78.8408 32.115 78.6174 32.0867 78.4074 32.03C78.3008 32.0967 78.2191 32.1683 78.1624 32.245C78.1058 32.3183 78.0774 32.3933 78.0774 32.47C78.0774 32.59 78.1258 32.6817 78.2224 32.745C78.3224 32.805 78.4524 32.8483 78.6124 32.875C78.7724 32.9017 78.9541 32.9183 79.1574 32.925C79.3641 32.9317 79.5741 32.9433 79.7874 32.96C80.0041 32.9733 80.2141 32.9983 80.4174 33.035C80.6241 33.0717 80.8074 33.1317 80.9674 33.215C81.1274 33.2983 81.2558 33.4133 81.3524 33.56C81.4524 33.7067 81.5024 33.8967 81.5024 34.13C81.5024 34.3467 81.4474 34.5567 81.3374 34.76C81.2308 34.9633 81.0758 35.1433 80.8724 35.3C80.6691 35.46 80.4191 35.5867 80.1224 35.68C79.8291 35.7767 79.4974 35.825 79.1274 35.825C78.7574 35.825 78.4341 35.7883 78.1574 35.715C77.8808 35.6417 77.6508 35.5433 77.4674 35.42C77.2841 35.2967 77.1458 35.1533 77.0524 34.99C76.9624 34.83 76.9174 34.6617 76.9174 34.485C76.9174 34.235 76.9958 34.0233 77.1524 33.85C77.3091 33.6767 77.5241 33.5383 77.7974 33.435C77.6474 33.3683 77.5274 33.28 77.4374 33.17C77.3508 33.0567 77.3074 32.905 77.3074 32.715C77.3074 32.6417 77.3208 32.5667 77.3474 32.49C77.3741 32.41 77.4141 32.3317 77.4674 32.255C77.5241 32.175 77.5924 32.1 77.6724 32.03C77.7524 31.96 77.8458 31.8983 77.9524 31.845C77.7024 31.705 77.5074 31.52 77.3674 31.29C77.2274 31.0567 77.1574 30.7867 77.1574 30.48C77.1574 30.2333 77.2041 30.01 77.2974 29.81C77.3941 29.6067 77.5274 29.435 77.6974 29.295C77.8674 29.1517 78.0691 29.0417 78.3024 28.965C78.5391 28.8883 78.7974 28.85 79.0774 28.85C79.2974 28.85 79.5024 28.875 79.6924 28.925C79.8824 28.9717 80.0558 29.0417 80.2124 29.135H81.5874ZM83.4477 28.935V34H82.5577V28.935H83.4477ZM83.6377 27.345C83.6377 27.4317 83.6194 27.5133 83.5827 27.59C83.5494 27.6633 83.5027 27.73 83.4427 27.79C83.3861 27.8467 83.3177 27.8917 83.2377 27.925C83.1611 27.9583 83.0794 27.975 82.9927 27.975C82.9061 27.975 82.8244 27.9583 82.7477 27.925C82.6744 27.8917 82.6094 27.8467 82.5527 27.79C82.4961 27.73 82.4511 27.6633 82.4177 27.59C82.3844 27.5133 82.3677 27.4317 82.3677 27.345C82.3677 27.2583 82.3844 27.1767 82.4177 27.1C82.4511 27.02 82.4961 26.9517 82.5527 26.895C82.6094 26.835 82.6744 26.7883 82.7477 26.755C82.8244 26.7217 82.9061 26.705 82.9927 26.705C83.0794 26.705 83.1611 26.7217 83.2377 26.755C83.3177 26.7883 83.3861 26.835 83.4427 26.895C83.5027 26.9517 83.5494 27.02 83.5827 27.1C83.6194 27.1767 83.6377 27.2583 83.6377 27.345ZM85.7551 29.95C85.9151 29.6033 86.1117 29.3333 86.3451 29.14C86.5784 28.9433 86.8634 28.845 87.2001 28.845C87.3067 28.845 87.4084 28.8567 87.5051 28.88C87.6051 28.9033 87.6934 28.94 87.7701 28.99L87.7051 29.655C87.6851 29.7383 87.6351 29.78 87.5551 29.78C87.5084 29.78 87.4401 29.77 87.3501 29.75C87.2601 29.73 87.1584 29.72 87.0451 29.72C86.8851 29.72 86.7417 29.7433 86.6151 29.79C86.4917 29.8367 86.3801 29.9067 86.2801 30C86.1834 30.09 86.0951 30.2033 86.0151 30.34C85.9384 30.4733 85.8684 30.6267 85.8051 30.8V34H84.9101V28.935H85.4201C85.5167 28.935 85.5834 28.9533 85.6201 28.99C85.6567 29.0267 85.6817 29.09 85.6951 29.18L85.7551 29.95ZM89.4927 28.935V34H88.6027V28.935H89.4927ZM89.6827 27.345C89.6827 27.4317 89.6643 27.5133 89.6277 27.59C89.5943 27.6633 89.5477 27.73 89.4877 27.79C89.431 27.8467 89.3627 27.8917 89.2827 27.925C89.206 27.9583 89.1243 27.975 89.0377 27.975C88.951 27.975 88.8693 27.9583 88.7927 27.925C88.7193 27.8917 88.6543 27.8467 88.5977 27.79C88.541 27.73 88.496 27.6633 88.4627 27.59C88.4293 27.5133 88.4127 27.4317 88.4127 27.345C88.4127 27.2583 88.4293 27.1767 88.4627 27.1C88.496 27.02 88.541 26.9517 88.5977 26.895C88.6543 26.835 88.7193 26.7883 88.7927 26.755C88.8693 26.7217 88.951 26.705 89.0377 26.705C89.1243 26.705 89.206 26.7217 89.2827 26.755C89.3627 26.7883 89.431 26.835 89.4877 26.895C89.5477 26.9517 89.5943 27.02 89.6277 27.1C89.6643 27.1767 89.6827 27.2583 89.6827 27.345ZM93.905 29.77C93.865 29.8433 93.8033 29.88 93.72 29.88C93.67 29.88 93.6133 29.8617 93.55 29.825C93.4867 29.7883 93.4083 29.7483 93.315 29.705C93.225 29.6583 93.1167 29.6167 92.99 29.58C92.8633 29.54 92.7133 29.52 92.54 29.52C92.39 29.52 92.255 29.54 92.135 29.58C92.015 29.6167 91.9117 29.6683 91.825 29.735C91.7417 29.8017 91.6767 29.88 91.63 29.97C91.5867 30.0567 91.565 30.1517 91.565 30.255C91.565 30.385 91.6017 30.4933 91.675 30.58C91.7517 30.6667 91.8517 30.7417 91.975 30.805C92.0983 30.8683 92.2383 30.925 92.395 30.975C92.5517 31.0217 92.7117 31.0733 92.875 31.13C93.0417 31.1833 93.2033 31.2433 93.36 31.31C93.5167 31.3767 93.6567 31.46 93.78 31.56C93.9033 31.66 94.0017 31.7833 94.075 31.93C94.1517 32.0733 94.19 32.2467 94.19 32.45C94.19 32.6833 94.1483 32.9 94.065 33.1C93.9817 33.2967 93.8583 33.4683 93.695 33.615C93.5317 33.7583 93.3317 33.8717 93.095 33.955C92.8583 34.0383 92.585 34.08 92.275 34.08C91.9217 34.08 91.6017 34.0233 91.315 33.91C91.0283 33.7933 90.785 33.645 90.585 33.465L90.795 33.125C90.8217 33.0817 90.8533 33.0483 90.89 33.025C90.9267 33.0017 90.9733 32.99 91.03 32.99C91.09 32.99 91.1533 33.0133 91.22 33.06C91.2867 33.1067 91.3667 33.1583 91.46 33.215C91.5567 33.2717 91.6733 33.3233 91.81 33.37C91.9467 33.4167 92.1167 33.44 92.32 33.44C92.4933 33.44 92.645 33.4183 92.775 33.375C92.905 33.3283 93.0133 33.2667 93.1 33.19C93.1867 33.1133 93.25 33.025 93.29 32.925C93.3333 32.825 93.355 32.7183 93.355 32.605C93.355 32.465 93.3167 32.35 93.24 32.26C93.1667 32.1667 93.0683 32.0883 92.945 32.025C92.8217 31.9583 92.68 31.9017 92.52 31.855C92.3633 31.805 92.2017 31.7533 92.035 31.7C91.8717 31.6467 91.71 31.5867 91.55 31.52C91.3933 31.45 91.2533 31.3633 91.13 31.26C91.0067 31.1567 90.9067 31.03 90.83 30.88C90.7567 30.7267 90.72 30.5417 90.72 30.325C90.72 30.1317 90.76 29.9467 90.84 29.77C90.92 29.59 91.0367 29.4333 91.19 29.3C91.3433 29.1633 91.5317 29.055 91.755 28.975C91.9783 28.895 92.2333 28.855 92.52 28.855C92.8533 28.855 93.1517 28.9083 93.415 29.015C93.6817 29.1183 93.9117 29.2617 94.105 29.445L93.905 29.77ZM101.956 28.935L99.1309 35.495C99.1009 35.5617 99.0625 35.615 99.0159 35.655C98.9725 35.695 98.9042 35.715 98.8109 35.715H98.1509L99.0759 33.705L96.9859 28.935H97.7559C97.8325 28.935 97.8925 28.955 97.9359 28.995C97.9825 29.0317 98.0142 29.0733 98.0309 29.12L99.3859 32.31C99.4392 32.45 99.4842 32.5967 99.5209 32.75C99.5675 32.5933 99.6175 32.445 99.6709 32.305L100.986 29.12C101.006 29.0667 101.039 29.0233 101.086 28.99C101.136 28.9533 101.191 28.935 101.251 28.935H101.956ZM105.389 31.72C104.979 31.7333 104.629 31.7667 104.339 31.82C104.053 31.87 103.818 31.9367 103.634 32.02C103.454 32.1033 103.323 32.2017 103.239 32.315C103.159 32.4283 103.119 32.555 103.119 32.695C103.119 32.8283 103.141 32.9433 103.184 33.04C103.228 33.1367 103.286 33.2167 103.359 33.28C103.436 33.34 103.524 33.385 103.624 33.415C103.728 33.4417 103.838 33.455 103.954 33.455C104.111 33.455 104.254 33.44 104.384 33.41C104.514 33.3767 104.636 33.33 104.749 33.27C104.866 33.21 104.976 33.1383 105.079 33.055C105.186 32.9717 105.289 32.8767 105.389 32.77V31.72ZM102.514 29.65C102.794 29.38 103.096 29.1783 103.419 29.045C103.743 28.9117 104.101 28.845 104.494 28.845C104.778 28.845 105.029 28.8917 105.249 28.985C105.469 29.0783 105.654 29.2083 105.804 29.375C105.954 29.5417 106.068 29.7433 106.144 29.98C106.221 30.2167 106.259 30.4767 106.259 30.76V34H105.864C105.778 34 105.711 33.9867 105.664 33.96C105.618 33.93 105.581 33.8733 105.554 33.79L105.454 33.31C105.321 33.4333 105.191 33.5433 105.064 33.64C104.938 33.7333 104.804 33.8133 104.664 33.88C104.524 33.9433 104.374 33.9917 104.214 34.025C104.058 34.0617 103.883 34.08 103.689 34.08C103.493 34.08 103.308 34.0533 103.134 34C102.961 33.9433 102.809 33.86 102.679 33.75C102.553 33.64 102.451 33.5017 102.374 33.335C102.301 33.165 102.264 32.965 102.264 32.735C102.264 32.535 102.319 32.3433 102.429 32.16C102.539 31.9733 102.718 31.8083 102.964 31.665C103.211 31.5217 103.533 31.405 103.929 31.315C104.326 31.2217 104.813 31.1683 105.389 31.155V30.76C105.389 30.3667 105.304 30.07 105.134 29.87C104.964 29.6667 104.716 29.565 104.389 29.565C104.169 29.565 103.984 29.5933 103.834 29.65C103.688 29.7033 103.559 29.765 103.449 29.835C103.343 29.9017 103.249 29.9633 103.169 30.02C103.093 30.0733 103.016 30.1 102.939 30.1C102.879 30.1 102.828 30.085 102.784 30.055C102.741 30.0217 102.704 29.9817 102.674 29.935L102.514 29.65ZM108.51 32.78C108.673 33 108.852 33.155 109.045 33.245C109.238 33.335 109.455 33.38 109.695 33.38C110.168 33.38 110.532 33.2117 110.785 32.875C111.038 32.5383 111.165 32.0583 111.165 31.435C111.165 31.105 111.135 30.8217 111.075 30.585C111.018 30.3483 110.935 30.155 110.825 30.005C110.715 29.8517 110.58 29.74 110.42 29.67C110.26 29.6 110.078 29.565 109.875 29.565C109.585 29.565 109.33 29.6317 109.11 29.765C108.893 29.8983 108.693 30.0867 108.51 30.33V32.78ZM108.465 29.72C108.678 29.4567 108.925 29.245 109.205 29.085C109.485 28.925 109.805 28.845 110.165 28.845C110.458 28.845 110.723 28.9017 110.96 29.015C111.197 29.125 111.398 29.29 111.565 29.51C111.732 29.7267 111.86 29.9967 111.95 30.32C112.04 30.6433 112.085 31.015 112.085 31.435C112.085 31.8083 112.035 32.1567 111.935 32.48C111.835 32.8 111.69 33.0783 111.5 33.315C111.313 33.5483 111.083 33.7333 110.81 33.87C110.54 34.0033 110.235 34.07 109.895 34.07C109.585 34.07 109.318 34.0183 109.095 33.915C108.875 33.8083 108.68 33.6617 108.51 33.475V35.715H107.615V28.935H108.15C108.277 28.935 108.355 28.9967 108.385 29.12L108.465 29.72Z" fill="#797979"/>
<rect x="0.5" y="1.5" width="159" height="39.6604" rx="5.5" stroke="#2D69B3"/>
</svg>
