<svg width="32" height="32" viewBox="0 0 32 32" fill="none" xmlns="http://www.w3.org/2000/svg">
<path d="M15.5192 0.431641C6.94829 0.431641 0 7.37993 0 15.9509C0 23.638 5.59499 30.0043 12.9309 31.2371V19.1886H9.18725V14.8529H12.9309V11.6559C12.9309 7.94643 15.1966 5.925 18.5061 5.925C20.0912 5.925 21.4534 6.04311 21.8488 6.09513V9.97249L19.5534 9.9736C17.754 9.9736 17.407 10.8285 17.407 12.0835V14.8507H21.7007L21.1407 19.1864H17.407V31.3407C25.0855 30.4062 31.0383 23.8778 31.0383 15.9464C31.0383 7.37993 24.09 0.431641 15.5192 0.431641Z" fill="#2D69B3"/>
</svg>
