<svg width="33" height="31" viewBox="0 0 33 31" fill="none" xmlns="http://www.w3.org/2000/svg">
<g clip-path="url(#clip0_810_824)">
<path d="M19.1006 15.5C19.1006 17.1385 17.7295 18.4668 16.0381 18.4668C14.3467 18.4668 12.9756 17.1385 12.9756 15.5C12.9756 13.8615 14.3467 12.5332 16.0381 12.5332C17.7295 12.5332 19.1006 13.8615 19.1006 15.5Z" fill="white"/>
<path d="M23.2002 10.2506C23.053 9.86414 22.8181 9.51434 22.5129 9.22722C22.2166 8.93158 21.8557 8.70406 21.4565 8.56144C21.1328 8.43964 20.6465 8.29465 19.7507 8.25516C18.7817 8.21235 18.4912 8.20312 16.0381 8.20312C13.5847 8.20312 13.2942 8.21211 12.3254 8.25492C11.4297 8.29465 10.9431 8.43964 10.6196 8.56144C10.2205 8.70406 9.85938 8.93158 9.56323 9.22722C9.25806 9.51434 9.02319 9.86391 8.87573 10.2506C8.75 10.5642 8.60034 11.0356 8.55957 11.9033C8.51538 12.8418 8.50586 13.1233 8.50586 15.5C8.50586 17.8764 8.51538 18.1579 8.55957 19.0966C8.60034 19.9644 8.75 20.4355 8.87573 20.7491C9.02319 21.1358 9.25781 21.4854 9.56299 21.7725C9.85938 22.0681 10.2202 22.2956 10.6194 22.4383C10.9431 22.5603 11.4297 22.7053 12.3254 22.7448C13.2942 22.7876 13.5845 22.7966 16.0378 22.7966C18.4915 22.7966 18.782 22.7876 19.7505 22.7448C20.6462 22.7053 21.1328 22.5603 21.4565 22.4383C22.2578 22.1388 22.8911 21.5253 23.2002 20.7491C23.3259 20.4355 23.4756 19.9644 23.5166 19.0966C23.5608 18.1579 23.5701 17.8764 23.5701 15.5C23.5701 13.1233 23.5608 12.8418 23.5166 11.9033C23.4758 11.0356 23.3262 10.5642 23.2002 10.2506ZM16.0381 20.0701C13.4324 20.0701 11.3201 18.024 11.3201 15.4997C11.3201 12.9754 13.4324 10.9294 16.0381 10.9294C18.6436 10.9294 20.7559 12.9754 20.7559 15.4997C20.7559 18.024 18.6436 20.0701 16.0381 20.0701ZM20.9424 11.8168C20.3335 11.8168 19.8398 11.3386 19.8398 10.7487C19.8398 10.1588 20.3335 9.68061 20.9424 9.68061C21.5513 9.68061 22.0449 10.1588 22.0449 10.7487C22.0447 11.3386 21.5513 11.8168 20.9424 11.8168Z" fill="white"/>
<path d="M16.0381 0C7.20288 0 0.0380859 6.9409 0.0380859 15.5C0.0380859 24.0591 7.20288 31 16.0381 31C24.8733 31 32.0381 24.0591 32.0381 15.5C32.0381 6.9409 24.8733 0 16.0381 0ZM25.1702 19.1695C25.1257 20.1169 24.9702 20.7638 24.7432 21.33C24.2659 22.5256 23.2903 23.4707 22.0562 23.933C21.4719 24.153 20.804 24.3034 19.8262 24.3467C18.8464 24.39 18.5334 24.4004 16.0383 24.4004C13.543 24.4004 13.2302 24.39 12.2502 24.3467C11.2725 24.3034 10.6045 24.153 10.0203 23.933C9.40698 23.7095 8.85181 23.3593 8.39282 22.9063C7.92554 22.4619 7.56396 21.9239 7.33325 21.33C7.1062 20.764 6.95068 20.1169 6.90625 19.1697C6.86108 18.2204 6.85059 17.9171 6.85059 15.5C6.85059 13.0829 6.86108 12.7796 6.90601 11.8305C6.95044 10.8831 7.10571 10.2362 7.33276 9.67C7.56348 9.07612 7.92529 8.53806 8.39282 8.09365C8.85156 7.64073 9.40698 7.29046 10.02 7.06696C10.6045 6.847 11.2722 6.69658 12.2502 6.6533C13.23 6.61002 13.543 6.59961 16.0381 6.59961C18.5332 6.59961 18.8462 6.61002 19.8259 6.65353C20.804 6.69658 21.4717 6.847 22.0562 7.06672C22.6692 7.29022 23.2246 7.64073 23.6836 8.09365C24.1509 8.53829 24.5127 9.07612 24.7432 9.67C24.9705 10.2362 25.1257 10.8831 25.1704 11.8305C25.2151 12.7796 25.2256 13.0829 25.2256 15.5C25.2256 17.9171 25.2151 18.2204 25.1702 19.1695Z" fill="white"/>
</g>
<defs>
<clipPath id="clip0_810_824">
<rect width="32" height="31" fill="white" transform="translate(0.0380859)"/>
</clipPath>
</defs>
</svg>
