<svg fill="#2d69b3" width="43" height="27" viewBox="0 0 43 27" className="progress-symbol" xmlns="http://www.w3.org/2000/svg">
<path fill-rule="evenodd" clip-rule="evenodd" d="M28.9 4.19047L24.728 5.56136L23.0844 6.10143L25.4815 13.8245C25.8101 14.8833 26.9513 15.463 28.0174 15.1127L31.8946 13.8387C32.9609 13.488 33.5643 12.3352 33.2356 11.2763L31.4359 5.47869C31.1073 4.41981 29.9662 3.84014 28.9 4.19047ZM24.3119 4.73776L23.5801 4.97823L22.8139 5.22997L22.6787 4.79424C22.6043 4.55457 22.7409 4.29365 22.9822 4.21435L22.982 4.21464C23.1029 4.17492 23.2276 4.18772 23.3317 4.2406L23.332 4.24002L24.3119 4.73776ZM31.5426 14.9144L28.9105 15.7795L29.2328 16.8177L30.3807 17.4008L30.9214 19.1436L30.3144 20.3034L30.585 21.1745L31.733 21.7577L31.126 22.9174L31.3965 23.7889L33.4216 24.0835L34.0285 22.9238L31.5426 14.9144ZM28.604 10.1188L30.5423 9.48182C30.6399 9.44952 30.6994 9.33574 30.6696 9.23872L30.2221 7.79796C30.1923 7.70094 30.0796 7.64372 29.9818 7.67586L28.0433 8.31308L26.1046 8.94988C26.0069 8.98174 25.9472 9.09582 25.9774 9.19298L26.4248 10.6338C26.4547 10.7308 26.5673 10.788 26.6651 10.7558L28.604 10.1188ZM30.8128 10.3533C30.9104 10.321 31.0233 10.3783 31.0532 10.4754L31.5006 11.9161C31.5305 12.0131 31.4709 12.1269 31.3735 12.1589L29.4347 12.796L27.4962 13.4332C27.3985 13.4651 27.2858 13.4079 27.2555 13.311L26.8085 11.8701C26.7782 11.7732 26.8379 11.6591 26.9356 11.6273L28.8742 10.9901L30.8128 10.3533ZM29.7052 13.6675L31.6437 13.0303C32.2258 12.8392 32.5572 12.2059 32.3777 11.6277L31.9306 10.187C31.8592 9.95686 31.7166 9.76768 31.5343 9.6358C31.6083 9.41947 31.6185 9.18057 31.5469 8.95068L31.0996 7.50963C30.9203 6.93183 30.2934 6.61338 29.7113 6.80441L27.7728 7.44162L25.8341 8.07842C25.2522 8.26987 24.9207 8.90321 25.1001 9.48102L25.5474 10.9221C25.6188 11.1522 25.7614 11.3407 25.9437 11.4726C25.8696 11.6892 25.8597 11.9283 25.9311 12.1584L26.3782 13.599C26.5577 14.1773 27.1846 14.4957 27.7668 14.3044L29.7052 13.6675ZM28.6295 3.31902L25.5524 4.33015L23.7611 3.42019L23.7608 3.42077C23.4488 3.26227 23.0743 3.22374 22.7116 3.34319C21.9863 3.5815 21.5777 4.36226 21.8013 5.08257L21.9365 5.51829L22.207 6.38975L24.6042 14.1125C25.0555 15.5672 26.5576 16.3976 28.0293 16.0558L28.4674 17.467L29.6153 18.0502L29.9322 19.071L29.3252 20.2308L29.8196 21.8239L30.492 22.1654L30.1365 22.8447L30.6862 24.6157L33.924 25.087L35.018 22.9965L32.4163 14.6147C33.8083 14.0153 34.5643 12.4427 34.1131 10.988L32.3134 5.19036C31.8354 3.65042 30.1801 2.80952 28.6295 3.31902Z"/>
<path fill-rule="evenodd" clip-rule="evenodd" d="M13.9325 4.53453L18.1502 5.73859L19.8118 6.21293L17.6993 14.0274C17.4096 15.0988 16.2909 15.7236 15.2131 15.416L11.2934 14.297C10.2155 13.989 9.57063 12.8607 9.86027 11.7893L11.4463 5.92306C11.736 4.85164 12.8547 4.22684 13.9325 4.53453ZM18.5358 4.89885L19.2756 5.11005L20.0501 5.33116L20.1693 4.89027C20.2349 4.64776 20.0889 4.39241 19.845 4.32277L19.8451 4.32305C19.7229 4.28816 19.5988 4.30591 19.4968 4.36291L19.4964 4.36235L18.5358 4.89885ZM11.6844 15.3582L14.3452 16.118L14.0613 17.1685L12.9358 17.797L12.4594 19.5604L13.1081 20.6954L12.8695 21.5769L11.7441 22.2054L12.3928 23.3405L12.1544 24.2222L10.1422 24.5974L9.49355 23.4624L11.6844 15.3582ZM14.4448 10.448L12.4852 9.88854C12.3865 9.86015 12.3229 9.74879 12.3492 9.65063L12.7435 8.1928C12.7698 8.09464 12.8803 8.03296 12.9792 8.0612L14.9389 8.6209L16.8988 9.18017C16.9975 9.20812 17.0614 9.31977 17.0348 9.41809L16.6404 10.8759C16.6141 10.9741 16.5037 11.0358 16.4048 11.0075L14.4448 10.448ZM12.2468 10.7703C12.1482 10.7419 12.0375 10.8038 12.0112 10.9019L11.6168 12.3597C11.5905 12.4579 11.6542 12.5693 11.7526 12.5974L13.7127 13.1569L15.6724 13.7166C15.7712 13.7446 15.8816 13.6829 15.9084 13.5849L16.3022 12.1269C16.329 12.0289 16.2652 11.9172 16.1664 11.8893L14.2067 11.3296L12.2468 10.7703ZM13.4743 14.0387L11.5146 13.479C10.9261 13.3112 10.5719 12.6914 10.7301 12.1063L11.1241 10.6487C11.1871 10.4158 11.3226 10.221 11.4999 10.0819C11.4181 9.86867 11.3992 9.63029 11.4623 9.39768L11.8565 7.93956C12.0145 7.35492 12.6291 7.01167 13.2175 7.17942L15.1773 7.73912L17.1372 8.29839C17.7255 8.46658 18.0797 9.08639 17.9217 9.67104L17.5275 11.1292C17.4645 11.3621 17.329 11.5561 17.1517 11.6952C17.2336 11.9087 17.2523 12.1473 17.1893 12.3802L16.7952 13.8378C16.6371 14.4229 16.0225 14.7662 15.4339 14.5981L13.4743 14.0387ZM14.1709 3.65276L17.2817 4.54084L19.0379 3.56002L19.0382 3.56059C19.3441 3.38975 19.7167 3.33633 20.0835 3.44127C20.8167 3.65059 21.2534 4.41467 21.0564 5.14351L20.9372 5.58439L20.6988 6.46617L18.5861 14.2804C18.1885 15.7523 16.7183 16.642 15.2356 16.359L14.8496 17.787L13.7241 18.4155L13.4449 19.4485L14.0936 20.5835L13.6578 22.1954L12.9986 22.5636L13.3786 23.2284L12.8942 25.0204L9.67701 25.6203L8.50775 23.5744L10.8007 15.0934C9.3882 14.5497 8.57554 13.008 8.97322 11.5361L10.5593 5.66982C10.9805 4.11164 12.6034 3.20527 14.1709 3.65276Z"/>
</svg>
