<svg width="153" height="461" viewBox="0 0 153 461" fill="none" xmlns="http://www.w3.org/2000/svg">
<path fill-rule="evenodd" clip-rule="evenodd" d="M165.469 427.473C175.032 430.858 179.791 440.688 176.082 449.416C172.373 458.144 161.582 462.488 152.019 459.103C152.019 459.103 -9.80794e-06 405.999 -4.02707e-05 237.491C-7.04718e-05 70.4313 150.388 1.80877 150.388 1.80877C159.549 -2.39219 170.742 0.972527 175.345 9.33367C179.97 17.7152 176.261 27.9118 167.1 32.1128C166.899 32.2148 37.1781 92.3538 37.1781 237.491C37.1781 381.119 165.112 427.33 165.469 427.473ZM165 428.554C165 428.554 35.9047 382.18 35.9047 237.491C35.9047 91.4769 166.519 31.0727 166.519 31.0727C175.054 27.1573 178.495 17.6541 174.205 9.86391C169.916 2.09417 159.504 -1.04621 150.969 2.86926C150.969 2.86926 1.29598 71.1858 1.29601 237.491C1.29604 405.163 152.488 458.001 152.488 458.001C161.381 461.162 171.413 457.124 174.876 448.988C178.339 440.871 173.915 431.715 165 428.554ZM216.098 375.43C225.661 378.815 230.42 388.665 226.711 397.393C223.002 406.121 212.21 410.465 202.648 407.059C201.977 406.835 84.8574 365.702 84.8574 235.697C84.8574 106.751 201.017 53.8519 201.017 53.8519C210.177 49.6305 221.371 53.0156 225.973 61.3768C230.598 69.7379 226.889 79.9549 217.729 84.1559C217.505 84.2579 122.035 128.694 122.035 235.697C122.035 341.19 215.718 375.287 216.098 375.43ZM215.629 376.531C215.629 376.531 120.74 342.25 120.74 235.697C120.739 127.797 217.148 83.1158 217.148 83.1158C225.683 79.18 229.123 69.6972 224.834 61.907C220.544 54.1169 210.132 50.9765 201.598 54.8919C201.598 54.8919 86.1308 107.506 86.1308 235.697C86.1309 365.233 203.117 405.979 203.117 405.979C212.031 409.119 222.063 405.081 225.504 396.965C228.967 388.828 224.543 379.692 215.629 376.531ZM262.101 312.925C271.664 316.31 276.423 326.16 272.714 334.888C269.005 343.617 258.214 347.94 248.651 344.555C248.07 344.351 170.832 317.412 170.832 231.903C170.832 147.803 246.506 113.196 247.02 112.951C256.18 108.75 267.374 112.115 271.977 120.496C276.602 128.857 272.893 139.054 263.732 143.275C263.442 143.398 208.01 169.46 208.01 231.903C208.01 292.736 261.565 312.721 262.101 312.925ZM261.632 314.026C261.632 314.026 206.714 293.898 206.714 231.903C206.714 168.563 263.151 142.215 263.151 142.215C271.686 138.299 275.127 128.796 270.837 121.026C266.547 113.236 256.136 110.096 247.601 114.011C247.601 114.011 172.128 148.272 172.128 231.903C172.128 316.881 249.12 343.474 249.12 343.474C258.012 346.614 268.044 342.577 271.507 334.46C274.948 326.323 270.525 317.167 261.632 314.026Z" fill="#2D69B3"/>
<path fill-rule="evenodd" clip-rule="evenodd" d="M165.469 427.473C175.032 430.858 179.791 440.688 176.082 449.416C172.373 458.144 161.582 462.488 152.019 459.103C152.019 459.103 -9.80794e-06 405.999 -4.02707e-05 237.491C-7.04718e-05 70.4313 150.388 1.80877 150.388 1.80877C159.549 -2.39219 170.742 0.972527 175.345 9.33367C179.97 17.7152 176.261 27.9118 167.1 32.1128C166.899 32.2148 37.1781 92.3538 37.1781 237.491C37.1781 381.119 165.112 427.33 165.469 427.473ZM165 428.554C165 428.554 35.9047 382.18 35.9047 237.491C35.9047 91.4769 166.519 31.0727 166.519 31.0727C175.054 27.1573 178.495 17.6541 174.205 9.86391C169.916 2.09417 159.504 -1.04621 150.969 2.86926C150.969 2.86926 1.29598 71.1858 1.29601 237.491C1.29604 405.163 152.488 458.001 152.488 458.001C161.381 461.162 171.413 457.124 174.876 448.988C178.339 440.871 173.915 431.715 165 428.554ZM216.098 375.43C225.661 378.815 230.42 388.665 226.711 397.393C223.002 406.121 212.21 410.465 202.648 407.059C201.977 406.835 84.8574 365.702 84.8574 235.697C84.8574 106.751 201.017 53.8519 201.017 53.8519C210.177 49.6305 221.371 53.0156 225.973 61.3768C230.598 69.7379 226.889 79.9549 217.729 84.1559C217.505 84.2579 122.035 128.694 122.035 235.697C122.035 341.19 215.718 375.287 216.098 375.43ZM215.629 376.531C215.629 376.531 120.74 342.25 120.74 235.697C120.739 127.797 217.148 83.1158 217.148 83.1158C225.683 79.18 229.123 69.6972 224.834 61.907C220.544 54.1169 210.132 50.9765 201.598 54.8919C201.598 54.8919 86.1308 107.506 86.1308 235.697C86.1309 365.233 203.117 405.979 203.117 405.979C212.031 409.119 222.063 405.081 225.504 396.965C228.967 388.828 224.543 379.692 215.629 376.531ZM262.101 312.925C271.664 316.31 276.423 326.16 272.714 334.888C269.005 343.617 258.214 347.94 248.651 344.555C248.07 344.351 170.832 317.412 170.832 231.903C170.832 147.803 246.506 113.196 247.02 112.951C256.18 108.75 267.374 112.115 271.977 120.496C276.602 128.857 272.893 139.054 263.732 143.275C263.442 143.398 208.01 169.46 208.01 231.903C208.01 292.736 261.565 312.721 262.101 312.925ZM261.632 314.026C261.632 314.026 206.714 293.898 206.714 231.903C206.714 168.563 263.151 142.215 263.151 142.215C271.686 138.299 275.127 128.796 270.837 121.026C266.547 113.236 256.136 110.096 247.601 114.011C247.601 114.011 172.128 148.272 172.128 231.903C172.128 316.881 249.12 343.474 249.12 343.474C258.012 346.614 268.044 342.577 271.507 334.46C274.948 326.323 270.525 317.167 261.632 314.026Z" fill="#2D69B3"/>
<path fill-rule="evenodd" clip-rule="evenodd" d="M165.469 427.473C175.032 430.858 179.791 440.688 176.082 449.416C172.373 458.144 161.582 462.488 152.019 459.103C152.019 459.103 -9.80794e-06 405.999 -4.02707e-05 237.491C-7.04718e-05 70.4313 150.388 1.80877 150.388 1.80877C159.549 -2.39219 170.742 0.972527 175.345 9.33367C179.97 17.7152 176.261 27.9118 167.1 32.1128C166.899 32.2148 37.1781 92.3538 37.1781 237.491C37.1781 381.119 165.112 427.33 165.469 427.473ZM165 428.554C165 428.554 35.9047 382.18 35.9047 237.491C35.9047 91.4769 166.519 31.0727 166.519 31.0727C175.054 27.1573 178.495 17.6541 174.205 9.86391C169.916 2.09417 159.504 -1.04621 150.969 2.86926C150.969 2.86926 1.29598 71.1858 1.29601 237.491C1.29604 405.163 152.488 458.001 152.488 458.001C161.381 461.162 171.413 457.124 174.876 448.988C178.339 440.871 173.915 431.715 165 428.554ZM216.098 375.43C225.661 378.815 230.42 388.665 226.711 397.393C223.002 406.121 212.21 410.465 202.648 407.059C201.977 406.835 84.8574 365.702 84.8574 235.697C84.8574 106.751 201.017 53.8519 201.017 53.8519C210.177 49.6305 221.371 53.0156 225.973 61.3768C230.598 69.7379 226.889 79.9549 217.729 84.1559C217.505 84.2579 122.035 128.694 122.035 235.697C122.035 341.19 215.718 375.287 216.098 375.43ZM215.629 376.531C215.629 376.531 120.74 342.25 120.74 235.697C120.739 127.797 217.148 83.1158 217.148 83.1158C225.683 79.18 229.123 69.6972 224.834 61.907C220.544 54.1169 210.132 50.9765 201.598 54.8919C201.598 54.8919 86.1308 107.506 86.1308 235.697C86.1309 365.233 203.117 405.979 203.117 405.979C212.031 409.119 222.063 405.081 225.504 396.965C228.967 388.828 224.543 379.692 215.629 376.531ZM262.101 312.925C271.664 316.31 276.423 326.16 272.714 334.888C269.005 343.617 258.214 347.94 248.651 344.555C248.07 344.351 170.832 317.412 170.832 231.903C170.832 147.803 246.506 113.196 247.02 112.951C256.18 108.75 267.374 112.115 271.977 120.496C276.602 128.857 272.893 139.054 263.732 143.275C263.442 143.398 208.01 169.46 208.01 231.903C208.01 292.736 261.565 312.721 262.101 312.925ZM261.632 314.026C261.632 314.026 206.714 293.898 206.714 231.903C206.714 168.563 263.151 142.215 263.151 142.215C271.686 138.299 275.127 128.796 270.837 121.026C266.547 113.236 256.136 110.096 247.601 114.011C247.601 114.011 172.128 148.272 172.128 231.903C172.128 316.881 249.12 343.474 249.12 343.474C258.012 346.614 268.044 342.577 271.507 334.46C274.948 326.323 270.525 317.167 261.632 314.026Z" fill="#2D69B3"/>
</svg>
